ISO-10303-21;
HEADER;
/* Generated by software containing ST-Developer
 * from STEP Tools, Inc. (www.steptools.com) 
 */
/* OPTION: using custom renumber hook */

FILE_DESCRIPTION(
/* description */ ('STEP AP242 Edition 2',
'CAx-IF Rec.Pracs.---Representation and Presentation of Product Manufa
cturing Information (PMI)---4.0---2014-10-13',
'CAx-IF Rec.Pracs.---3D Tessellated Geometry---0.4---2014-09-14','2;1',
'CAx-IF Rec.Pracs.---User Defined Attributes---1.5---2016-08-15'),
/* implementation_level */ '2;1');

FILE_NAME(
/* name */ 'Slot',
/* time_stamp */ '2026-07-31T10:44:48Z',
/* author */ (''),
/* organization */ (''),
/* preprocessor_version */ 'ST-DEVELOPER v20',
/* originating_system */ 'ONSHAPE BY PTC INC, 1.218',
/* authorisation */ '  ');

FILE_SCHEMA (('AP242_MANAGED_MODEL_BASED_3D_ENGINEERING_MIM_LF { 1 0 10303 442 3 1 4 }'));
ENDSEC;

DATA;
#10=SHAPE_REPRESENTATION_RELATIONSHIP('','',#669,#11);
#11=ADVANCED_BREP_SHAPE_REPRESENTATION('',(#667),#1101);
#12=TOROIDAL_SURFACE('',#715,0.0198320247025746,0.0005);
#13=TOROIDAL_SURFACE('',#718,0.0198320247025746,0.0005);
#14=B_SPLINE_CURVE_WITH_KNOTS('',3,(#991,#992,#993,#994),.UNSPECIFIED.,
 .F.,.F.,(4,4),(0.,3.05512948262555E-5),.UNSPECIFIED.);
#15=B_SPLINE_CURVE_WITH_KNOTS('',3,(#999,#1000,#1001,#1002),
 .UNSPECIFIED.,.F.,.F.,(4,4),(0.,3.05512948262555E-5),.UNSPECIFIED.);
#16=B_SPLINE_CURVE_WITH_KNOTS('',3,(#1077,#1078,#1079,#1080,#1081),
 .UNSPECIFIED.,.F.,.F.,(4,1,4),(0.,0.000472117386133276,0.000944234772266553),
 .UNSPECIFIED.);
#17=B_SPLINE_CURVE_WITH_KNOTS('',3,(#1082,#1083,#1084,#1085,#1086),
 .UNSPECIFIED.,.F.,.F.,(4,1,4),(0.,0.000457764748443032,0.000915529496886064),
 .UNSPECIFIED.);
#18=B_SPLINE_CURVE_WITH_KNOTS('',3,(#1088,#1089,#1090,#1091,#1092),
 .UNSPECIFIED.,.F.,.F.,(4,1,4),(0.,0.000457764748443032,0.000915529496886064),
 .UNSPECIFIED.);
#19=B_SPLINE_CURVE_WITH_KNOTS('',3,(#1094,#1095,#1096,#1097,#1098),
 .UNSPECIFIED.,.F.,.F.,(4,1,4),(0.,0.000472117386133276,0.000944234772266553),
 .UNSPECIFIED.);
#20=ELLIPSE('',#683,0.0314803938975307,0.0222599999993677);
#21=ELLIPSE('',#684,0.0314803938975307,0.0222599999993677);
#22=ELLIPSE('',#685,0.0314803938975309,0.0222599999993677);
#23=ELLIPSE('',#686,0.0314803938975309,0.0222599999993677);
#24=CYLINDRICAL_SURFACE('',#680,0.0222599999993677);
#25=CYLINDRICAL_SURFACE('',#688,0.0193320247025746);
#26=CYLINDRICAL_SURFACE('',#704,0.000498846044190147);
#27=CYLINDRICAL_SURFACE('',#716,0.0005);
#28=CYLINDRICAL_SURFACE('',#717,0.0005);
#29=CIRCLE('',#672,0.0222600000000003);
#30=CIRCLE('',#674,0.0222600000000003);
#31=CIRCLE('',#679,0.000498846044190147);
#32=CIRCLE('',#681,0.0222600000000003);
#33=CIRCLE('',#682,0.0222600000000003);
#34=CIRCLE('',#689,0.0193320247025746);
#35=CIRCLE('',#690,0.0193320247025746);
#36=CIRCLE('',#693,0.000498846044190147);
#37=CIRCLE('',#699,0.0198320247025746);
#38=CIRCLE('',#703,0.0198320247025746);
#39=ORIENTED_EDGE('',*,*,#223,.F.);
#40=ORIENTED_EDGE('',*,*,#224,.T.);
#41=ORIENTED_EDGE('',*,*,#225,.T.);
#42=ORIENTED_EDGE('',*,*,#226,.T.);
#43=ORIENTED_EDGE('',*,*,#227,.T.);
#44=ORIENTED_EDGE('',*,*,#228,.F.);
#45=ORIENTED_EDGE('',*,*,#229,.T.);
#46=ORIENTED_EDGE('',*,*,#230,.T.);
#47=ORIENTED_EDGE('',*,*,#231,.T.);
#48=ORIENTED_EDGE('',*,*,#232,.T.);
#49=ORIENTED_EDGE('',*,*,#233,.T.);
#50=ORIENTED_EDGE('',*,*,#234,.T.);
#51=ORIENTED_EDGE('',*,*,#235,.F.);
#52=ORIENTED_EDGE('',*,*,#236,.F.);
#53=ORIENTED_EDGE('',*,*,#237,.F.);
#54=ORIENTED_EDGE('',*,*,#238,.T.);
#55=ORIENTED_EDGE('',*,*,#239,.T.);
#56=ORIENTED_EDGE('',*,*,#235,.T.);
#57=ORIENTED_EDGE('',*,*,#240,.T.);
#58=ORIENTED_EDGE('',*,*,#241,.T.);
#59=ORIENTED_EDGE('',*,*,#242,.F.);
#60=ORIENTED_EDGE('',*,*,#243,.F.);
#61=ORIENTED_EDGE('',*,*,#244,.F.);
#62=ORIENTED_EDGE('',*,*,#245,.F.);
#63=ORIENTED_EDGE('',*,*,#246,.T.);
#64=ORIENTED_EDGE('',*,*,#247,.T.);
#65=ORIENTED_EDGE('',*,*,#248,.F.);
#66=ORIENTED_EDGE('',*,*,#243,.T.);
#67=ORIENTED_EDGE('',*,*,#249,.T.);
#68=ORIENTED_EDGE('',*,*,#250,.T.);
#69=ORIENTED_EDGE('',*,*,#251,.T.);
#70=ORIENTED_EDGE('',*,*,#252,.F.);
#71=ORIENTED_EDGE('',*,*,#253,.F.);
#72=ORIENTED_EDGE('',*,*,#254,.T.);
#73=ORIENTED_EDGE('',*,*,#255,.T.);
#74=ORIENTED_EDGE('',*,*,#225,.F.);
#75=ORIENTED_EDGE('',*,*,#256,.T.);
#76=ORIENTED_EDGE('',*,*,#245,.T.);
#77=ORIENTED_EDGE('',*,*,#257,.T.);
#78=ORIENTED_EDGE('',*,*,#228,.T.);
#79=ORIENTED_EDGE('',*,*,#258,.T.);
#80=ORIENTED_EDGE('',*,*,#259,.F.);
#81=ORIENTED_EDGE('',*,*,#260,.T.);
#82=ORIENTED_EDGE('',*,*,#261,.T.);
#83=ORIENTED_EDGE('',*,*,#262,.T.);
#84=ORIENTED_EDGE('',*,*,#263,.F.);
#85=ORIENTED_EDGE('',*,*,#264,.F.);
#86=ORIENTED_EDGE('',*,*,#252,.T.);
#87=ORIENTED_EDGE('',*,*,#265,.T.);
#88=ORIENTED_EDGE('',*,*,#266,.T.);
#89=ORIENTED_EDGE('',*,*,#267,.T.);
#90=ORIENTED_EDGE('',*,*,#268,.T.);
#91=ORIENTED_EDGE('',*,*,#269,.T.);
#92=ORIENTED_EDGE('',*,*,#270,.T.);
#93=ORIENTED_EDGE('',*,*,#271,.T.);
#94=ORIENTED_EDGE('',*,*,#272,.F.);
#95=ORIENTED_EDGE('',*,*,#254,.F.);
#96=ORIENTED_EDGE('',*,*,#273,.T.);
#97=ORIENTED_EDGE('',*,*,#274,.T.);
#98=ORIENTED_EDGE('',*,*,#275,.F.);
#99=ORIENTED_EDGE('',*,*,#276,.T.);
#100=ORIENTED_EDGE('',*,*,#277,.T.);
#101=ORIENTED_EDGE('',*,*,#259,.T.);
#102=ORIENTED_EDGE('',*,*,#278,.T.);
#103=ORIENTED_EDGE('',*,*,#279,.T.);
#104=ORIENTED_EDGE('',*,*,#280,.F.);
#105=ORIENTED_EDGE('',*,*,#281,.F.);
#106=ORIENTED_EDGE('',*,*,#282,.T.);
#107=ORIENTED_EDGE('',*,*,#283,.F.);
#108=ORIENTED_EDGE('',*,*,#284,.T.);
#109=ORIENTED_EDGE('',*,*,#285,.T.);
#110=ORIENTED_EDGE('',*,*,#281,.T.);
#111=ORIENTED_EDGE('',*,*,#286,.F.);
#112=ORIENTED_EDGE('',*,*,#287,.T.);
#113=ORIENTED_EDGE('',*,*,#288,.T.);
#114=ORIENTED_EDGE('',*,*,#233,.F.);
#115=ORIENTED_EDGE('',*,*,#289,.T.);
#116=ORIENTED_EDGE('',*,*,#290,.T.);
#117=ORIENTED_EDGE('',*,*,#249,.F.);
#118=ORIENTED_EDGE('',*,*,#242,.T.);
#119=ORIENTED_EDGE('',*,*,#291,.T.);
#120=ORIENTED_EDGE('',*,*,#237,.T.);
#121=ORIENTED_EDGE('',*,*,#234,.F.);
#122=ORIENTED_EDGE('',*,*,#288,.F.);
#123=ORIENTED_EDGE('',*,*,#292,.T.);
#124=ORIENTED_EDGE('',*,*,#283,.T.);
#125=ORIENTED_EDGE('',*,*,#280,.T.);
#126=ORIENTED_EDGE('',*,*,#293,.T.);
#127=ORIENTED_EDGE('',*,*,#294,.T.);
#128=ORIENTED_EDGE('',*,*,#295,.T.);
#129=ORIENTED_EDGE('',*,*,#289,.F.);
#130=ORIENTED_EDGE('',*,*,#296,.T.);
#131=ORIENTED_EDGE('',*,*,#230,.F.);
#132=ORIENTED_EDGE('',*,*,#272,.T.);
#133=ORIENTED_EDGE('',*,*,#297,.T.);
#134=ORIENTED_EDGE('',*,*,#265,.F.);
#135=ORIENTED_EDGE('',*,*,#255,.F.);
#136=ORIENTED_EDGE('',*,*,#298,.T.);
#137=ORIENTED_EDGE('',*,*,#299,.T.);
#138=ORIENTED_EDGE('',*,*,#300,.T.);
#139=ORIENTED_EDGE('',*,*,#223,.T.);
#140=ORIENTED_EDGE('',*,*,#301,.T.);
#141=ORIENTED_EDGE('',*,*,#248,.T.);
#142=ORIENTED_EDGE('',*,*,#302,.T.);
#143=ORIENTED_EDGE('',*,*,#298,.F.);
#144=ORIENTED_EDGE('',*,*,#303,.T.);
#145=ORIENTED_EDGE('',*,*,#282,.F.);
#146=ORIENTED_EDGE('',*,*,#285,.F.);
#147=ORIENTED_EDGE('',*,*,#304,.T.);
#148=ORIENTED_EDGE('',*,*,#286,.T.);
#149=ORIENTED_EDGE('',*,*,#236,.T.);
#150=ORIENTED_EDGE('',*,*,#239,.F.);
#151=ORIENTED_EDGE('',*,*,#305,.T.);
#152=ORIENTED_EDGE('',*,*,#240,.F.);
#153=ORIENTED_EDGE('',*,*,#264,.T.);
#154=ORIENTED_EDGE('',*,*,#306,.T.);
#155=ORIENTED_EDGE('',*,*,#273,.F.);
#156=ORIENTED_EDGE('',*,*,#253,.T.);
#157=ORIENTED_EDGE('',*,*,#275,.T.);
#158=ORIENTED_EDGE('',*,*,#244,.T.);
#159=ORIENTED_EDGE('',*,*,#302,.F.);
#160=ORIENTED_EDGE('',*,*,#247,.F.);
#161=ORIENTED_EDGE('',*,*,#307,.F.);
#162=ORIENTED_EDGE('',*,*,#299,.F.);
#163=ORIENTED_EDGE('',*,*,#307,.T.);
#164=ORIENTED_EDGE('',*,*,#246,.F.);
#165=ORIENTED_EDGE('',*,*,#256,.F.);
#166=ORIENTED_EDGE('',*,*,#224,.F.);
#167=ORIENTED_EDGE('',*,*,#300,.F.);
#168=ORIENTED_EDGE('',*,*,#295,.F.);
#169=ORIENTED_EDGE('',*,*,#308,.F.);
#170=ORIENTED_EDGE('',*,*,#250,.F.);
#171=ORIENTED_EDGE('',*,*,#290,.F.);
#172=ORIENTED_EDGE('',*,*,#294,.F.);
#173=ORIENTED_EDGE('',*,*,#229,.F.);
#174=ORIENTED_EDGE('',*,*,#257,.F.);
#175=ORIENTED_EDGE('',*,*,#251,.F.);
#176=ORIENTED_EDGE('',*,*,#308,.T.);
#177=ORIENTED_EDGE('',*,*,#301,.F.);
#178=ORIENTED_EDGE('',*,*,#227,.F.);
#179=ORIENTED_EDGE('',*,*,#309,.F.);
#180=ORIENTED_EDGE('',*,*,#276,.F.);
#181=ORIENTED_EDGE('',*,*,#303,.F.);
#182=ORIENTED_EDGE('',*,*,#309,.T.);
#183=ORIENTED_EDGE('',*,*,#226,.F.);
#184=ORIENTED_EDGE('',*,*,#260,.F.);
#185=ORIENTED_EDGE('',*,*,#277,.F.);
#186=ORIENTED_EDGE('',*,*,#293,.F.);
#187=ORIENTED_EDGE('',*,*,#279,.F.);
#188=ORIENTED_EDGE('',*,*,#310,.F.);
#189=ORIENTED_EDGE('',*,*,#231,.F.);
#190=ORIENTED_EDGE('',*,*,#296,.F.);
#191=ORIENTED_EDGE('',*,*,#310,.T.);
#192=ORIENTED_EDGE('',*,*,#278,.F.);
#193=ORIENTED_EDGE('',*,*,#258,.F.);
#194=ORIENTED_EDGE('',*,*,#232,.F.);
#195=ORIENTED_EDGE('',*,*,#305,.F.);
#196=ORIENTED_EDGE('',*,*,#238,.F.);
#197=ORIENTED_EDGE('',*,*,#291,.F.);
#198=ORIENTED_EDGE('',*,*,#241,.F.);
#199=ORIENTED_EDGE('',*,*,#304,.F.);
#200=ORIENTED_EDGE('',*,*,#284,.F.);
#201=ORIENTED_EDGE('',*,*,#292,.F.);
#202=ORIENTED_EDGE('',*,*,#287,.F.);
#203=ORIENTED_EDGE('',*,*,#311,.F.);
#204=ORIENTED_EDGE('',*,*,#269,.F.);
#205=ORIENTED_EDGE('',*,*,#312,.F.);
#206=ORIENTED_EDGE('',*,*,#274,.F.);
#207=ORIENTED_EDGE('',*,*,#306,.F.);
#208=ORIENTED_EDGE('',*,*,#263,.T.);
#209=ORIENTED_EDGE('',*,*,#312,.T.);
#210=ORIENTED_EDGE('',*,*,#268,.F.);
#211=ORIENTED_EDGE('',*,*,#313,.F.);
#212=ORIENTED_EDGE('',*,*,#270,.F.);
#213=ORIENTED_EDGE('',*,*,#311,.T.);
#214=ORIENTED_EDGE('',*,*,#262,.F.);
#215=ORIENTED_EDGE('',*,*,#314,.F.);
#216=ORIENTED_EDGE('',*,*,#266,.F.);
#217=ORIENTED_EDGE('',*,*,#313,.T.);
#218=ORIENTED_EDGE('',*,*,#267,.F.);
#219=ORIENTED_EDGE('',*,*,#314,.T.);
#220=ORIENTED_EDGE('',*,*,#261,.F.);
#221=ORIENTED_EDGE('',*,*,#297,.F.);
#222=ORIENTED_EDGE('',*,*,#271,.F.);
#223=EDGE_CURVE('',#315,#316,#377,.T.);
#224=EDGE_CURVE('',#315,#317,#378,.T.);
#225=EDGE_CURVE('',#317,#318,#29,.F.);
#226=EDGE_CURVE('',#318,#319,#379,.T.);
#227=EDGE_CURVE('',#319,#316,#380,.F.);
#228=EDGE_CURVE('',#320,#321,#30,.F.);
#229=EDGE_CURVE('',#320,#322,#381,.T.);
#230=EDGE_CURVE('',#322,#323,#382,.T.);
#231=EDGE_CURVE('',#323,#324,#383,.F.);
#232=EDGE_CURVE('',#324,#321,#384,.T.);
#233=EDGE_CURVE('',#325,#326,#385,.T.);
#234=EDGE_CURVE('',#326,#327,#386,.T.);
#235=EDGE_CURVE('',#328,#327,#387,.T.);
#236=EDGE_CURVE('',#325,#328,#388,.T.);
#237=EDGE_CURVE('',#329,#327,#389,.T.);
#238=EDGE_CURVE('',#329,#330,#390,.T.);
#239=EDGE_CURVE('',#330,#328,#391,.T.);
#240=EDGE_CURVE('',#331,#332,#392,.T.);
#241=EDGE_CURVE('',#332,#333,#393,.T.);
#242=EDGE_CURVE('',#334,#333,#394,.T.);
#243=EDGE_CURVE('',#331,#334,#395,.T.);
#244=EDGE_CURVE('',#335,#335,#31,.T.);
#245=EDGE_CURVE('',#336,#337,#396,.T.);
#246=EDGE_CURVE('',#336,#338,#397,.T.);
#247=EDGE_CURVE('',#338,#339,#398,.T.);
#248=EDGE_CURVE('',#331,#339,#399,.T.);
#249=EDGE_CURVE('',#334,#340,#400,.T.);
#250=EDGE_CURVE('',#340,#341,#401,.T.);
#251=EDGE_CURVE('',#341,#337,#402,.T.);
#252=EDGE_CURVE('',#342,#343,#403,.T.);
#253=EDGE_CURVE('',#344,#342,#32,.T.);
#254=EDGE_CURVE('',#344,#345,#404,.T.);
#255=EDGE_CURVE('',#345,#343,#33,.T.);
#256=EDGE_CURVE('',#317,#336,#20,.T.);
#257=EDGE_CURVE('',#337,#320,#21,.F.);
#258=EDGE_CURVE('',#321,#346,#22,.T.);
#259=EDGE_CURVE('',#347,#346,#405,.T.);
#260=EDGE_CURVE('',#347,#318,#23,.F.);
#261=EDGE_CURVE('',#348,#349,#406,.T.);
#262=EDGE_CURVE('',#349,#350,#407,.T.);
#263=EDGE_CURVE('',#351,#350,#408,.T.);
#264=EDGE_CURVE('',#342,#351,#409,.T.);
#265=EDGE_CURVE('',#343,#348,#410,.T.);
#266=EDGE_CURVE('',#352,#353,#411,.T.);
#267=EDGE_CURVE('',#353,#354,#34,.F.);
#268=EDGE_CURVE('',#354,#355,#412,.F.);
#269=EDGE_CURVE('',#355,#352,#35,.T.);
#270=EDGE_CURVE('',#356,#357,#413,.T.);
#271=EDGE_CURVE('',#357,#358,#14,.T.);
#272=EDGE_CURVE('',#345,#358,#414,.T.);
#273=EDGE_CURVE('',#344,#359,#415,.T.);
#274=EDGE_CURVE('',#359,#356,#15,.T.);
#275=EDGE_CURVE('',#360,#360,#36,.T.);
#276=EDGE_CURVE('',#361,#362,#416,.T.);
#277=EDGE_CURVE('',#362,#347,#417,.T.);
#278=EDGE_CURVE('',#346,#363,#418,.T.);
#279=EDGE_CURVE('',#363,#364,#419,.T.);
#280=EDGE_CURVE('',#365,#364,#420,.T.);
#281=EDGE_CURVE('',#366,#365,#421,.T.);
#282=EDGE_CURVE('',#366,#361,#422,.T.);
#283=EDGE_CURVE('',#367,#365,#423,.T.);
#284=EDGE_CURVE('',#367,#368,#424,.T.);
#285=EDGE_CURVE('',#368,#366,#425,.T.);
#286=EDGE_CURVE('',#369,#325,#426,.T.);
#287=EDGE_CURVE('',#369,#370,#427,.T.);
#288=EDGE_CURVE('',#370,#326,#428,.T.);
#289=EDGE_CURVE('',#371,#372,#429,.T.);
#290=EDGE_CURVE('',#372,#340,#430,.T.);
#291=EDGE_CURVE('',#333,#329,#431,.F.);
#292=EDGE_CURVE('',#370,#367,#432,.T.);
#293=EDGE_CURVE('',#364,#371,#433,.F.);
#294=EDGE_CURVE('',#322,#373,#434,.F.);
#295=EDGE_CURVE('',#373,#372,#435,.T.);
#296=EDGE_CURVE('',#371,#323,#436,.T.);
#297=EDGE_CURVE('',#358,#348,#37,.T.);
#298=EDGE_CURVE('',#374,#375,#437,.T.);
#299=EDGE_CURVE('',#375,#376,#438,.T.);
#300=EDGE_CURVE('',#376,#315,#439,.T.);
#301=EDGE_CURVE('',#316,#374,#440,.T.);
#302=EDGE_CURVE('',#339,#375,#441,.T.);
#303=EDGE_CURVE('',#374,#361,#442,.F.);
#304=EDGE_CURVE('',#368,#369,#443,.T.);
#305=EDGE_CURVE('',#330,#332,#444,.F.);
#306=EDGE_CURVE('',#351,#359,#38,.F.);
#307=EDGE_CURVE('',#376,#338,#445,.F.);
#308=EDGE_CURVE('',#341,#373,#446,.T.);
#309=EDGE_CURVE('',#362,#319,#447,.F.);
#310=EDGE_CURVE('',#324,#363,#448,.T.);
#311=EDGE_CURVE('',#352,#350,#16,.F.);
#312=EDGE_CURVE('',#356,#355,#17,.T.);
#313=EDGE_CURVE('',#357,#354,#18,.T.);
#314=EDGE_CURVE('',#353,#349,#19,.F.);
#315=VERTEX_POINT('',#892);
#316=VERTEX_POINT('',#893);
#317=VERTEX_POINT('',#895);
#318=VERTEX_POINT('',#897);
#319=VERTEX_POINT('',#899);
#320=VERTEX_POINT('',#903);
#321=VERTEX_POINT('',#904);
#322=VERTEX_POINT('',#906);
#323=VERTEX_POINT('',#908);
#324=VERTEX_POINT('',#910);
#325=VERTEX_POINT('',#914);
#326=VERTEX_POINT('',#915);
#327=VERTEX_POINT('',#917);
#328=VERTEX_POINT('',#919);
#329=VERTEX_POINT('',#923);
#330=VERTEX_POINT('',#925);
#331=VERTEX_POINT('',#929);
#332=VERTEX_POINT('',#930);
#333=VERTEX_POINT('',#932);
#334=VERTEX_POINT('',#934);
#335=VERTEX_POINT('',#938);
#336=VERTEX_POINT('',#940);
#337=VERTEX_POINT('',#941);
#338=VERTEX_POINT('',#943);
#339=VERTEX_POINT('',#945);
#340=VERTEX_POINT('',#948);
#341=VERTEX_POINT('',#950);
#342=VERTEX_POINT('',#954);
#343=VERTEX_POINT('',#955);
#344=VERTEX_POINT('',#957);
#345=VERTEX_POINT('',#959);
#346=VERTEX_POINT('',#964);
#347=VERTEX_POINT('',#966);
#348=VERTEX_POINT('',#970);
#349=VERTEX_POINT('',#971);
#350=VERTEX_POINT('',#973);
#351=VERTEX_POINT('',#975);
#352=VERTEX_POINT('',#980);
#353=VERTEX_POINT('',#981);
#354=VERTEX_POINT('',#983);
#355=VERTEX_POINT('',#985);
#356=VERTEX_POINT('',#989);
#357=VERTEX_POINT('',#990);
#358=VERTEX_POINT('',#995);
#359=VERTEX_POINT('',#998);
#360=VERTEX_POINT('',#1005);
#361=VERTEX_POINT('',#1007);
#362=VERTEX_POINT('',#1008);
#363=VERTEX_POINT('',#1011);
#364=VERTEX_POINT('',#1013);
#365=VERTEX_POINT('',#1015);
#366=VERTEX_POINT('',#1017);
#367=VERTEX_POINT('',#1021);
#368=VERTEX_POINT('',#1023);
#369=VERTEX_POINT('',#1027);
#370=VERTEX_POINT('',#1029);
#371=VERTEX_POINT('',#1033);
#372=VERTEX_POINT('',#1034);
#373=VERTEX_POINT('',#1041);
#374=VERTEX_POINT('',#1048);
#375=VERTEX_POINT('',#1049);
#376=VERTEX_POINT('',#1051);
#377=LINE('',#891,#449);
#378=LINE('',#894,#450);
#379=LINE('',#898,#451);
#380=LINE('',#900,#452);
#381=LINE('',#905,#453);
#382=LINE('',#907,#454);
#383=LINE('',#909,#455);
#384=LINE('',#911,#456);
#385=LINE('',#913,#457);
#386=LINE('',#916,#458);
#387=LINE('',#918,#459);
#388=LINE('',#920,#460);
#389=LINE('',#922,#461);
#390=LINE('',#924,#462);
#391=LINE('',#926,#463);
#392=LINE('',#928,#464);
#393=LINE('',#931,#465);
#394=LINE('',#933,#466);
#395=LINE('',#935,#467);
#396=LINE('',#939,#468);
#397=LINE('',#942,#469);
#398=LINE('',#944,#470);
#399=LINE('',#946,#471);
#400=LINE('',#947,#472);
#401=LINE('',#949,#473);
#402=LINE('',#951,#474);
#403=LINE('',#953,#475);
#404=LINE('',#958,#476);
#405=LINE('',#965,#477);
#406=LINE('',#969,#478);
#407=LINE('',#972,#479);
#408=LINE('',#974,#480);
#409=LINE('',#976,#481);
#410=LINE('',#977,#482);
#411=LINE('',#979,#483);
#412=LINE('',#984,#484);
#413=LINE('',#988,#485);
#414=LINE('',#996,#486);
#415=LINE('',#997,#487);
#416=LINE('',#1006,#488);
#417=LINE('',#1009,#489);
#418=LINE('',#1010,#490);
#419=LINE('',#1012,#491);
#420=LINE('',#1014,#492);
#421=LINE('',#1016,#493);
#422=LINE('',#1018,#494);
#423=LINE('',#1020,#495);
#424=LINE('',#1022,#496);
#425=LINE('',#1024,#497);
#426=LINE('',#1026,#498);
#427=LINE('',#1028,#499);
#428=LINE('',#1030,#500);
#429=LINE('',#1032,#501);
#430=LINE('',#1035,#502);
#431=LINE('',#1036,#503);
#432=LINE('',#1037,#504);
#433=LINE('',#1038,#505);
#434=LINE('',#1040,#506);
#435=LINE('',#1042,#507);
#436=LINE('',#1043,#508);
#437=LINE('',#1047,#509);
#438=LINE('',#1050,#510);
#439=LINE('',#1052,#511);
#440=LINE('',#1053,#512);
#441=LINE('',#1055,#513);
#442=LINE('',#1056,#514);
#443=LINE('',#1057,#515);
#444=LINE('',#1058,#516);
#445=LINE('',#1063,#517);
#446=LINE('',#1066,#518);
#447=LINE('',#1069,#519);
#448=LINE('',#1072,#520);
#449=VECTOR('',#723,1.);
#450=VECTOR('',#724,1.);
#451=VECTOR('',#727,1.);
#452=VECTOR('',#728,1.);
#453=VECTOR('',#733,1.);
#454=VECTOR('',#734,1.);
#455=VECTOR('',#735,1.);
#456=VECTOR('',#736,1.);
#457=VECTOR('',#739,1.);
#458=VECTOR('',#740,1.);
#459=VECTOR('',#741,1.);
#460=VECTOR('',#742,1.);
#461=VECTOR('',#745,1.);
#462=VECTOR('',#746,1.);
#463=VECTOR('',#747,1.);
#464=VECTOR('',#750,1.);
#465=VECTOR('',#751,1.);
#466=VECTOR('',#752,1.);
#467=VECTOR('',#753,1.);
#468=VECTOR('',#758,1.);
#469=VECTOR('',#759,1.);
#470=VECTOR('',#760,1.);
#471=VECTOR('',#761,1.);
#472=VECTOR('',#762,1.);
#473=VECTOR('',#763,1.);
#474=VECTOR('',#764,1.);
#475=VECTOR('',#767,1.);
#476=VECTOR('',#770,1.);
#477=VECTOR('',#779,1.);
#478=VECTOR('',#784,1.);
#479=VECTOR('',#785,1.);
#480=VECTOR('',#786,1.);
#481=VECTOR('',#787,1.);
#482=VECTOR('',#788,1.);
#483=VECTOR('',#791,1.);
#484=VECTOR('',#794,1.);
#485=VECTOR('',#799,1.);
#486=VECTOR('',#800,1.);
#487=VECTOR('',#801,1.);
#488=VECTOR('',#806,1.);
#489=VECTOR('',#807,1.);
#490=VECTOR('',#808,1.);
#491=VECTOR('',#809,1.);
#492=VECTOR('',#810,1.);
#493=VECTOR('',#811,1.);
#494=VECTOR('',#812,1.);
#495=VECTOR('',#815,1.);
#496=VECTOR('',#816,1.);
#497=VECTOR('',#817,1.);
#498=VECTOR('',#820,1.);
#499=VECTOR('',#821,1.);
#500=VECTOR('',#822,1.);
#501=VECTOR('',#825,1.);
#502=VECTOR('',#826,1.);
#503=VECTOR('',#827,1.);
#504=VECTOR('',#828,1.);
#505=VECTOR('',#829,1.);
#506=VECTOR('',#832,1.);
#507=VECTOR('',#833,1.);
#508=VECTOR('',#834,1.);
#509=VECTOR('',#841,1.);
#510=VECTOR('',#842,1.);
#511=VECTOR('',#843,1.);
#512=VECTOR('',#844,1.);
#513=VECTOR('',#847,1.);
#514=VECTOR('',#848,1.);
#515=VECTOR('',#849,1.);
#516=VECTOR('',#850,1.);
#517=VECTOR('',#859,1.);
#518=VECTOR('',#864,1.);
#519=VECTOR('',#869,1.);
#520=VECTOR('',#874,1.);
#521=EDGE_LOOP('',(#39,#40,#41,#42,#43));
#522=EDGE_LOOP('',(#44,#45,#46,#47,#48));
#523=EDGE_LOOP('',(#49,#50,#51,#52));
#524=EDGE_LOOP('',(#53,#54,#55,#56));
#525=EDGE_LOOP('',(#57,#58,#59,#60));
#526=EDGE_LOOP('',(#61));
#527=EDGE_LOOP('',(#62,#63,#64,#65,#66,#67,#68,#69));
#528=EDGE_LOOP('',(#70,#71,#72,#73));
#529=EDGE_LOOP('',(#74,#75,#76,#77,#78,#79,#80,#81));
#530=EDGE_LOOP('',(#82,#83,#84,#85,#86,#87));
#531=EDGE_LOOP('',(#88,#89,#90,#91));
#532=EDGE_LOOP('',(#92,#93,#94,#95,#96,#97));
#533=EDGE_LOOP('',(#98));
#534=EDGE_LOOP('',(#99,#100,#101,#102,#103,#104,#105,#106));
#535=EDGE_LOOP('',(#107,#108,#109,#110));
#536=EDGE_LOOP('',(#111,#112,#113,#114));
#537=EDGE_LOOP('',(#115,#116,#117,#118,#119,#120,#121,#122,#123,#124,#125,
#126));
#538=EDGE_LOOP('',(#127,#128,#129,#130,#131));
#539=EDGE_LOOP('',(#132,#133,#134,#135));
#540=EDGE_LOOP('',(#136,#137,#138,#139,#140));
#541=EDGE_LOOP('',(#141,#142,#143,#144,#145,#146,#147,#148,#149,#150,#151,
#152));
#542=EDGE_LOOP('',(#153,#154,#155,#156));
#543=EDGE_LOOP('',(#157));
#544=EDGE_LOOP('',(#158));
#545=EDGE_LOOP('',(#159,#160,#161,#162));
#546=EDGE_LOOP('',(#163,#164,#165,#166,#167));
#547=EDGE_LOOP('',(#168,#169,#170,#171));
#548=EDGE_LOOP('',(#172,#173,#174,#175,#176));
#549=EDGE_LOOP('',(#177,#178,#179,#180,#181));
#550=EDGE_LOOP('',(#182,#183,#184,#185));
#551=EDGE_LOOP('',(#186,#187,#188,#189,#190));
#552=EDGE_LOOP('',(#191,#192,#193,#194));
#553=EDGE_LOOP('',(#195,#196,#197,#198));
#554=EDGE_LOOP('',(#199,#200,#201,#202));
#555=EDGE_LOOP('',(#203,#204,#205,#206,#207,#208));
#556=EDGE_LOOP('',(#209,#210,#211,#212));
#557=EDGE_LOOP('',(#213,#214,#215,#216));
#558=EDGE_LOOP('',(#217,#218,#219,#220,#221,#222));
#559=FACE_BOUND('',#521,.T.);
#560=FACE_BOUND('',#522,.T.);
#561=FACE_BOUND('',#523,.T.);
#562=FACE_BOUND('',#524,.T.);
#563=FACE_BOUND('',#525,.T.);
#564=FACE_BOUND('',#526,.T.);
#565=FACE_BOUND('',#527,.T.);
#566=FACE_BOUND('',#528,.T.);
#567=FACE_BOUND('',#529,.T.);
#568=FACE_BOUND('',#530,.T.);
#569=FACE_BOUND('',#531,.T.);
#570=FACE_BOUND('',#532,.T.);
#571=FACE_BOUND('',#533,.T.);
#572=FACE_BOUND('',#534,.T.);
#573=FACE_BOUND('',#535,.T.);
#574=FACE_BOUND('',#536,.T.);
#575=FACE_BOUND('',#537,.T.);
#576=FACE_BOUND('',#538,.T.);
#577=FACE_BOUND('',#539,.T.);
#578=FACE_BOUND('',#540,.T.);
#579=FACE_BOUND('',#541,.T.);
#580=FACE_BOUND('',#542,.T.);
#581=FACE_BOUND('',#543,.T.);
#582=FACE_BOUND('',#544,.T.);
#583=FACE_BOUND('',#545,.T.);
#584=FACE_BOUND('',#546,.T.);
#585=FACE_BOUND('',#547,.T.);
#586=FACE_BOUND('',#548,.T.);
#587=FACE_BOUND('',#549,.T.);
#588=FACE_BOUND('',#550,.T.);
#589=FACE_BOUND('',#551,.T.);
#590=FACE_BOUND('',#552,.T.);
#591=FACE_BOUND('',#553,.T.);
#592=FACE_BOUND('',#554,.T.);
#593=FACE_BOUND('',#555,.T.);
#594=FACE_BOUND('',#556,.T.);
#595=FACE_BOUND('',#557,.T.);
#596=FACE_BOUND('',#558,.T.);
#597=PLANE('',#671);
#598=PLANE('',#673);
#599=PLANE('',#675);
#600=PLANE('',#676);
#601=PLANE('',#677);
#602=PLANE('',#678);
#603=PLANE('',#687);
#604=PLANE('',#691);
#605=PLANE('',#692);
#606=PLANE('',#694);
#607=PLANE('',#695);
#608=PLANE('',#696);
#609=PLANE('',#697);
#610=PLANE('',#698);
#611=PLANE('',#700);
#612=PLANE('',#701);
#613=PLANE('',#702);
#614=PLANE('',#705);
#615=PLANE('',#706);
#616=PLANE('',#707);
#617=PLANE('',#708);
#618=PLANE('',#709);
#619=PLANE('',#710);
#620=PLANE('',#711);
#621=PLANE('',#712);
#622=PLANE('',#713);
#623=PLANE('',#714);
#624=ADVANCED_FACE('',(#559),#597,.T.);
#625=ADVANCED_FACE('',(#560),#598,.F.);
#626=ADVANCED_FACE('',(#561),#599,.F.);
#627=ADVANCED_FACE('',(#562),#600,.T.);
#628=ADVANCED_FACE('',(#563),#601,.T.);
#629=ADVANCED_FACE('',(#564,#565),#602,.F.);
#630=ADVANCED_FACE('',(#566,#567),#24,.T.);
#631=ADVANCED_FACE('',(#568),#603,.F.);
#632=ADVANCED_FACE('',(#569),#25,.F.);
#633=ADVANCED_FACE('',(#570),#604,.T.);
#634=ADVANCED_FACE('',(#571,#572),#605,.T.);
#635=ADVANCED_FACE('',(#573),#606,.T.);
#636=ADVANCED_FACE('',(#574),#607,.F.);
#637=ADVANCED_FACE('',(#575),#608,.F.);
#638=ADVANCED_FACE('',(#576),#609,.T.);
#639=ADVANCED_FACE('',(#577),#610,.F.);
#640=ADVANCED_FACE('',(#578),#611,.T.);
#641=ADVANCED_FACE('',(#579),#612,.T.);
#642=ADVANCED_FACE('',(#580),#613,.T.);
#643=ADVANCED_FACE('',(#581,#582),#26,.F.);
#644=ADVANCED_FACE('',(#583),#614,.T.);
#645=ADVANCED_FACE('',(#584),#615,.T.);
#646=ADVANCED_FACE('',(#585),#616,.T.);
#647=ADVANCED_FACE('',(#586),#617,.F.);
#648=ADVANCED_FACE('',(#587),#618,.F.);
#649=ADVANCED_FACE('',(#588),#619,.F.);
#650=ADVANCED_FACE('',(#589),#620,.F.);
#651=ADVANCED_FACE('',(#590),#621,.T.);
#652=ADVANCED_FACE('',(#591),#622,.F.);
#653=ADVANCED_FACE('',(#592),#623,.T.);
#654=ADVANCED_FACE('',(#593),#12,.T.);
#655=ADVANCED_FACE('',(#594),#27,.T.);
#656=ADVANCED_FACE('',(#595),#28,.T.);
#657=ADVANCED_FACE('',(#596),#13,.T.);
#658=CLOSED_SHELL('',(#624,#625,#626,#627,#628,#629,#630,#631,#632,#633,
#634,#635,#636,#637,#638,#639,#640,#641,#642,#643,#644,#645,#646,#647,#648,
#649,#650,#651,#652,#653,#654,#655,#656,#657));
#659=STYLED_ITEM('',(#660),#667);
#660=PRESENTATION_STYLE_ASSIGNMENT((#661));
#661=SURFACE_STYLE_USAGE(.BOTH.,#662);
#662=SURFACE_SIDE_STYLE('',(#663));
#663=SURFACE_STYLE_FILL_AREA(#664);
#664=FILL_AREA_STYLE('',(#665));
#665=FILL_AREA_STYLE_COLOUR('',#666);
#666=COLOUR_RGB('',0.615686274509804,0.811764705882353,0.929411764705882);
#667=MANIFOLD_SOLID_BREP('Part 1',#658);
#668=SHAPE_DEFINITION_REPRESENTATION(#1106,#669);
#669=SHAPE_REPRESENTATION('Part 1',(#670),#1101);
#670=AXIS2_PLACEMENT_3D('',#889,#719,#720);
#671=AXIS2_PLACEMENT_3D('',#890,#721,#722);
#672=AXIS2_PLACEMENT_3D('',#896,#725,#726);
#673=AXIS2_PLACEMENT_3D('',#901,#729,#730);
#674=AXIS2_PLACEMENT_3D('',#902,#731,#732);
#675=AXIS2_PLACEMENT_3D('',#912,#737,#738);
#676=AXIS2_PLACEMENT_3D('',#921,#743,#744);
#677=AXIS2_PLACEMENT_3D('',#927,#748,#749);
#678=AXIS2_PLACEMENT_3D('',#936,#754,#755);
#679=AXIS2_PLACEMENT_3D('',#937,#756,#757);
#680=AXIS2_PLACEMENT_3D('',#952,#765,#766);
#681=AXIS2_PLACEMENT_3D('',#956,#768,#769);
#682=AXIS2_PLACEMENT_3D('',#960,#771,#772);
#683=AXIS2_PLACEMENT_3D('',#961,#773,#774);
#684=AXIS2_PLACEMENT_3D('',#962,#775,#776);
#685=AXIS2_PLACEMENT_3D('',#963,#777,#778);
#686=AXIS2_PLACEMENT_3D('',#967,#780,#781);
#687=AXIS2_PLACEMENT_3D('',#968,#782,#783);
#688=AXIS2_PLACEMENT_3D('',#978,#789,#790);
#689=AXIS2_PLACEMENT_3D('',#982,#792,#793);
#690=AXIS2_PLACEMENT_3D('',#986,#795,#796);
#691=AXIS2_PLACEMENT_3D('',#987,#797,#798);
#692=AXIS2_PLACEMENT_3D('',#1003,#802,#803);
#693=AXIS2_PLACEMENT_3D('',#1004,#804,#805);
#694=AXIS2_PLACEMENT_3D('',#1019,#813,#814);
#695=AXIS2_PLACEMENT_3D('',#1025,#818,#819);
#696=AXIS2_PLACEMENT_3D('',#1031,#823,#824);
#697=AXIS2_PLACEMENT_3D('',#1039,#830,#831);
#698=AXIS2_PLACEMENT_3D('',#1044,#835,#836);
#699=AXIS2_PLACEMENT_3D('',#1045,#837,#838);
#700=AXIS2_PLACEMENT_3D('',#1046,#839,#840);
#701=AXIS2_PLACEMENT_3D('',#1054,#845,#846);
#702=AXIS2_PLACEMENT_3D('',#1059,#851,#852);
#703=AXIS2_PLACEMENT_3D('',#1060,#853,#854);
#704=AXIS2_PLACEMENT_3D('',#1061,#855,#856);
#705=AXIS2_PLACEMENT_3D('',#1062,#857,#858);
#706=AXIS2_PLACEMENT_3D('',#1064,#860,#861);
#707=AXIS2_PLACEMENT_3D('',#1065,#862,#863);
#708=AXIS2_PLACEMENT_3D('',#1067,#865,#866);
#709=AXIS2_PLACEMENT_3D('',#1068,#867,#868);
#710=AXIS2_PLACEMENT_3D('',#1070,#870,#871);
#711=AXIS2_PLACEMENT_3D('',#1071,#872,#873);
#712=AXIS2_PLACEMENT_3D('',#1073,#875,#876);
#713=AXIS2_PLACEMENT_3D('',#1074,#877,#878);
#714=AXIS2_PLACEMENT_3D('',#1075,#879,#880);
#715=AXIS2_PLACEMENT_3D('',#1076,#881,#882);
#716=AXIS2_PLACEMENT_3D('',#1087,#883,#884);
#717=AXIS2_PLACEMENT_3D('',#1093,#885,#886);
#718=AXIS2_PLACEMENT_3D('',#1099,#887,#888);
#719=DIRECTION('',(0.,0.,1.));
#720=DIRECTION('',(1.,0.,0.));
#721=DIRECTION('',(0.,0.,1.));
#722=DIRECTION('',(1.,0.,0.));
#723=DIRECTION('',(0.00718506824420011,0.999974187064009,0.));
#724=DIRECTION('',(1.,0.,0.));
#725=DIRECTION('',(0.,0.,1.));
#726=DIRECTION('',(1.,0.,0.));
#727=DIRECTION('',(-1.,0.,0.));
#728=DIRECTION('',(-0.704561896413582,0.709642539679025,0.));
#729=DIRECTION('',(0.,0.,1.));
#730=DIRECTION('',(1.,0.,0.));
#731=DIRECTION('',(0.,0.,1.));
#732=DIRECTION('',(1.,0.,0.));
#733=DIRECTION('',(-1.,0.,0.));
#734=DIRECTION('',(0.00718506824420011,0.999974187064009,0.));
#735=DIRECTION('',(0.704561896413582,-0.709642539679025,0.));
#736=DIRECTION('',(1.,0.,0.));
#737=DIRECTION('',(1.,0.,0.));
#738=DIRECTION('',(0.,0.,-1.));
#739=DIRECTION('',(0.,0.,-1.));
#740=DIRECTION('',(0.,-1.,0.));
#741=DIRECTION('',(0.,0.,-1.));
#742=DIRECTION('',(0.,-1.,0.));
#743=DIRECTION('',(0.,-1.,0.));
#744=DIRECTION('',(0.,0.,-1.));
#745=DIRECTION('',(-1.,0.,0.));
#746=DIRECTION('',(0.,0.,1.));
#747=DIRECTION('',(-1.,0.,0.));
#748=DIRECTION('',(1.,0.,0.));
#749=DIRECTION('',(0.,0.,-1.));
#750=DIRECTION('',(0.,-1.,0.));
#751=DIRECTION('',(0.,0.,-1.));
#752=DIRECTION('',(0.,-1.,0.));
#753=DIRECTION('',(0.,0.,-1.));
#754=DIRECTION('',(0.,1.,0.));
#755=DIRECTION('',(0.,0.,1.));
#756=DIRECTION('',(0.,-1.,0.));
#757=DIRECTION('',(0.,0.,-1.));
#758=DIRECTION('',(0.,0.,-1.));
#759=DIRECTION('',(-1.,0.,0.));
#760=DIRECTION('',(0.,0.,1.));
#761=DIRECTION('',(1.,0.,0.));
#762=DIRECTION('',(1.,0.,0.));
#763=DIRECTION('',(0.,0.,1.));
#764=DIRECTION('',(1.,0.,0.));
#765=DIRECTION('',(0.,0.,-1.));
#766=DIRECTION('',(-1.,0.,0.));
#767=DIRECTION('',(0.,0.,-1.));
#768=DIRECTION('',(0.,0.,1.));
#769=DIRECTION('',(1.,0.,0.));
#770=DIRECTION('',(0.,0.,-1.));
#771=DIRECTION('',(0.,0.,1.));
#772=DIRECTION('',(1.,0.,0.));
#773=DIRECTION('',(0.,-0.707106781186546,0.707106781186549));
#774=DIRECTION('',(0.,-0.707106781186549,-0.707106781186546));
#775=DIRECTION('',(0.,0.707106781186546,0.707106781186549));
#776=DIRECTION('',(0.,0.707106781186549,-0.707106781186546));
#777=DIRECTION('',(0.,0.707106781186551,-0.707106781186545));
#778=DIRECTION('',(0.,-0.707106781186545,-0.707106781186551));
#779=DIRECTION('',(0.,0.,-1.));
#780=DIRECTION('',(0.,-0.70710678118655,-0.707106781186545));
#781=DIRECTION('',(0.,0.707106781186545,-0.70710678118655));
#782=DIRECTION('',(-0.173029286345547,0.984916679758623,0.));
#783=DIRECTION('',(-0.984916679758623,-0.173029286345547,0.));
#784=DIRECTION('',(0.984916679758623,0.173029286345547,0.));
#785=DIRECTION('',(0.,0.,1.));
#786=DIRECTION('',(0.984916679758623,0.173029286345547,0.));
#787=DIRECTION('',(0.984916679758623,0.173029286345547,0.));
#788=DIRECTION('',(0.984916679758623,0.173029286345547,0.));
#789=DIRECTION('',(0.,0.,-1.));
#790=DIRECTION('',(-1.,0.,0.));
#791=DIRECTION('',(0.,0.,-1.));
#792=DIRECTION('',(0.,0.,1.));
#793=DIRECTION('',(1.,0.,0.));
#794=DIRECTION('',(0.,0.,-1.));
#795=DIRECTION('',(0.,0.,1.));
#796=DIRECTION('',(1.,0.,0.));
#797=DIRECTION('',(0.173029286345544,0.984916679758624,0.));
#798=DIRECTION('',(-0.984916679758624,0.173029286345544,0.));
#799=DIRECTION('',(0.,0.,-1.));
#800=DIRECTION('',(0.984916679758624,-0.173029286345544,0.));
#801=DIRECTION('',(0.984916679758624,-0.173029286345544,0.));
#802=DIRECTION('',(0.,1.,0.));
#803=DIRECTION('',(0.,0.,1.));
#804=DIRECTION('',(0.,1.,0.));
#805=DIRECTION('',(0.,0.,1.));
#806=DIRECTION('',(0.,0.,-1.));
#807=DIRECTION('',(1.,0.,0.));
#808=DIRECTION('',(-1.,0.,0.));
#809=DIRECTION('',(0.,0.,-1.));
#810=DIRECTION('',(1.,0.,0.));
#811=DIRECTION('',(0.,0.,-1.));
#812=DIRECTION('',(1.,0.,0.));
#813=DIRECTION('',(1.,0.,0.));
#814=DIRECTION('',(0.,0.,-1.));
#815=DIRECTION('',(0.,-1.,0.));
#816=DIRECTION('',(0.,0.,1.));
#817=DIRECTION('',(0.,-1.,0.));
#818=DIRECTION('',(0.,-1.,0.));
#819=DIRECTION('',(0.,0.,-1.));
#820=DIRECTION('',(-1.,0.,0.));
#821=DIRECTION('',(0.,0.,-1.));
#822=DIRECTION('',(-1.,0.,0.));
#823=DIRECTION('',(0.,0.,1.));
#824=DIRECTION('',(1.,0.,0.));
#825=DIRECTION('',(-0.00718506824420011,-0.999974187064009,0.));
#826=DIRECTION('',(-0.709642539679026,-0.704561896413581,0.));
#827=DIRECTION('',(0.707106781186549,0.707106781186546,0.));
#828=DIRECTION('',(0.707106781186548,-0.707106781186548,0.));
#829=DIRECTION('',(-0.704561896413582,0.709642539679025,0.));
#830=DIRECTION('',(0.999974187064009,-0.00718506824420011,0.));
#831=DIRECTION('',(0.00718506824420011,0.999974187064009,0.));
#832=DIRECTION('',(0.00508067605192172,0.707097654758825,-0.707097654758822));
#833=DIRECTION('',(0.,0.,-1.));
#834=DIRECTION('',(0.,0.,1.));
#835=DIRECTION('',(0.,0.,1.));
#836=DIRECTION('',(1.,0.,0.));
#837=DIRECTION('',(0.,0.,1.));
#838=DIRECTION('',(1.,0.,0.));
#839=DIRECTION('',(0.999974187064009,-0.00718506824420011,0.));
#840=DIRECTION('',(0.00718506824420011,0.999974187064009,0.));
#841=DIRECTION('',(-0.00718506824420011,-0.999974187064009,0.));
#842=DIRECTION('',(0.,0.,-1.));
#843=DIRECTION('',(0.00508067605192172,0.707097654758825,0.707097654758822));
#844=DIRECTION('',(0.,0.,1.));
#845=DIRECTION('',(0.,0.,1.));
#846=DIRECTION('',(1.,0.,0.));
#847=DIRECTION('',(0.709642539679026,0.704561896413581,0.));
#848=DIRECTION('',(0.704561896413582,-0.709642539679025,0.));
#849=DIRECTION('',(-0.707106781186548,0.707106781186548,0.));
#850=DIRECTION('',(-0.707106781186549,-0.707106781186546,0.));
#851=DIRECTION('',(0.,0.,1.));
#852=DIRECTION('',(1.,0.,0.));
#853=DIRECTION('',(0.,0.,1.));
#854=DIRECTION('',(1.,0.,0.));
#855=DIRECTION('',(0.,-1.,0.));
#856=DIRECTION('',(0.,0.,-1.));
#857=DIRECTION('',(0.704561896413581,-0.709642539679026,0.));
#858=DIRECTION('',(0.,0.,1.));
#859=DIRECTION('',(0.580115819072,0.575962514605953,0.575962514605951));
#860=DIRECTION('',(0.,-0.707106781186546,0.707106781186549));
#861=DIRECTION('',(-1.,0.,0.));
#862=DIRECTION('',(0.704561896413581,-0.709642539679026,0.));
#863=DIRECTION('',(0.,0.,1.));
#864=DIRECTION('',(0.580115819072,0.575962514605953,-0.575962514605951));
#865=DIRECTION('',(0.,0.707106781186546,0.707106781186549));
#866=DIRECTION('',(1.,0.,0.));
#867=DIRECTION('',(-0.709642539679025,-0.704561896413582,0.));
#868=DIRECTION('',(0.,0.,-1.));
#869=DIRECTION('',(-0.574584719231262,0.57872808832211,-0.578728088322113));
#870=DIRECTION('',(0.,-0.70710678118655,-0.707106781186545));
#871=DIRECTION('',(1.,0.,0.));
#872=DIRECTION('',(-0.709642539679025,-0.704561896413582,0.));
#873=DIRECTION('',(0.,0.,-1.));
#874=DIRECTION('',(-0.574584719231262,0.578728088322109,0.578728088322114));
#875=DIRECTION('',(0.,0.707106781186551,-0.707106781186545));
#876=DIRECTION('',(-1.,0.,0.));
#877=DIRECTION('',(-0.707106781186546,0.707106781186549,0.));
#878=DIRECTION('',(0.,0.,-1.));
#879=DIRECTION('',(0.707106781186548,0.707106781186548,0.));
#880=DIRECTION('',(0.,0.,1.));
#881=DIRECTION('',(0.,0.,1.));
#882=DIRECTION('',(1.,0.,0.));
#883=DIRECTION('',(0.,0.,-1.));
#884=DIRECTION('',(-1.,0.,0.));
#885=DIRECTION('',(0.,0.,-1.));
#886=DIRECTION('',(-1.,0.,0.));
#887=DIRECTION('',(0.,0.,1.));
#888=DIRECTION('',(1.,0.,0.));
#889=CARTESIAN_POINT('',(0.,0.,0.));
#890=CARTESIAN_POINT('',(-0.0200329385416726,-0.00116336997539283,0.005));
#891=CARTESIAN_POINT('',(-0.0323840637235477,-0.0010746240072744,0.005));
#892=CARTESIAN_POINT('',(-0.0323870843430272,-0.00149501549218667,0.005));
#893=CARTESIAN_POINT('',(-0.0323737794967318,0.00035667225885832,0.005));
#894=CARTESIAN_POINT('',(-0.0216184534531254,-0.00149501549218667,0.005));
#895=CARTESIAN_POINT('',(-0.0216450942553517,-0.00149501549218667,0.005));
#896=CARTESIAN_POINT('',(0.000595718678431216,-0.000570980836727941,0.005));
#897=CARTESIAN_POINT('',(-0.0216447945683617,0.000360239072447514,0.005));
#898=CARTESIAN_POINT('',(-0.0200329385416726,0.000360239072447514,0.005));
#899=CARTESIAN_POINT('',(-0.0323773207739327,0.000360239072447514,0.005));
#900=CARTESIAN_POINT('',(-0.0328701869626097,0.000856659352390325,0.005));
#901=CARTESIAN_POINT('',(-0.0200329385416726,-0.00116336997539283,-0.005));
#902=CARTESIAN_POINT('',(0.000595718678431216,-0.000570980836727941,-0.005));
#903=CARTESIAN_POINT('',(-0.0216450942553517,-0.00149501549218667,-0.005));
#904=CARTESIAN_POINT('',(-0.0216447945683617,0.000360239072447514,-0.005));
#905=CARTESIAN_POINT('',(-0.0200329385416726,-0.00149501549218667,-0.005));
#906=CARTESIAN_POINT('',(-0.0323870843430272,-0.00149501549218667,-0.005));
#907=CARTESIAN_POINT('',(-0.0323840637235477,-0.0010746240072744,-0.005));
#908=CARTESIAN_POINT('',(-0.0323737794967318,0.00035667225885832,-0.005));
#909=CARTESIAN_POINT('',(-0.0254876924126795,-0.00657907086272163,-0.005));
#910=CARTESIAN_POINT('',(-0.0323773207739327,0.000360239072447514,-0.005));
#911=CARTESIAN_POINT('',(-0.0216184534531254,0.000360239072447514,-0.005));
#912=CARTESIAN_POINT('',(-0.0378025211393833,0.00636811903203159,0.005));
#913=CARTESIAN_POINT('',(-0.0378025211393833,0.00655687552858649,0.005));
#914=CARTESIAN_POINT('',(-0.0378025211393833,0.00655687552858649,0.0105));
#915=CARTESIAN_POINT('',(-0.0378025211393833,0.00655687552858649,-0.0105));
#916=CARTESIAN_POINT('',(-0.0378025211393833,0.00636811903203159,-0.0105));
#917=CARTESIAN_POINT('',(-0.0378025211393833,-0.00769883720204234,-0.0105));
#918=CARTESIAN_POINT('',(-0.0378025211393833,-0.00769883720204234,0.005));
#919=CARTESIAN_POINT('',(-0.0378025211393833,-0.00769883720204234,0.0105));
#920=CARTESIAN_POINT('',(-0.0378025211393833,0.00636811903203159,0.0105));
#921=CARTESIAN_POINT('',(-0.0371603909879923,-0.00769883720204234,0.005));
#922=CARTESIAN_POINT('',(-0.0371603909879923,-0.00769883720204234,-0.0105));
#923=CARTESIAN_POINT('',(-0.0353700731992722,-0.00769883720204234,-0.0105));
#924=CARTESIAN_POINT('',(-0.0353700731992722,-0.00769883720204234,0.005));
#925=CARTESIAN_POINT('',(-0.0353700731992722,-0.00769883720204234,0.0105));
#926=CARTESIAN_POINT('',(-0.0371603909879923,-0.00769883720204234,0.0105));
#927=CARTESIAN_POINT('',(-0.0348700731992722,-0.00484872911394426,0.005));
#928=CARTESIAN_POINT('',(-0.0348700731992722,-0.00484872911394426,0.0105));
#929=CARTESIAN_POINT('',(-0.0348700731992722,-0.00199862102584617,0.0105));
#930=CARTESIAN_POINT('',(-0.0348700731992722,-0.00719883720204234,0.0105));
#931=CARTESIAN_POINT('',(-0.0348700731992722,-0.00719883720204234,0.005));
#932=CARTESIAN_POINT('',(-0.0348700731992722,-0.00719883720204234,-0.0105));
#933=CARTESIAN_POINT('',(-0.0348700731992722,-0.00484872911394426,-0.0105));
#934=CARTESIAN_POINT('',(-0.0348700731992722,-0.00199862102584617,-0.0105));
#935=CARTESIAN_POINT('',(-0.0348700731992722,-0.00199862102584617,0.005));
#936=CARTESIAN_POINT('',(-0.0270045781648426,-0.00199862102584617,0.005));
#937=CARTESIAN_POINT('',(-0.0313911810517311,-0.00199862102584617,8.97907248552643E-19));
#938=CARTESIAN_POINT('',(-0.0313911810517311,-0.00199862102584617,-0.000498846044190146));
#939=CARTESIAN_POINT('',(-0.0216184534531254,-0.00199862102584617,0.005));
#940=CARTESIAN_POINT('',(-0.0216184534531254,-0.00199862102584617,0.0044963944663405));
#941=CARTESIAN_POINT('',(-0.0216184534531254,-0.00199862102584617,-0.0044963944663405));
#942=CARTESIAN_POINT('',(-0.0323907028765596,-0.00199862102584617,0.0044963944663405));
#943=CARTESIAN_POINT('',(-0.0328907028765596,-0.00199862102584617,0.0044963944663405));
#944=CARTESIAN_POINT('',(-0.0328907028765596,-0.00199862102584617,0.0105));
#945=CARTESIAN_POINT('',(-0.0328907028765596,-0.00199862102584617,0.0105));
#946=CARTESIAN_POINT('',(-0.0336303880379159,-0.00199862102584617,0.0105));
#947=CARTESIAN_POINT('',(-0.0336303880379159,-0.00199862102584617,-0.0105));
#948=CARTESIAN_POINT('',(-0.0328907028765596,-0.00199862102584617,-0.0105));
#949=CARTESIAN_POINT('',(-0.0328907028765596,-0.00199862102584617,-0.005));
#950=CARTESIAN_POINT('',(-0.0328907028765596,-0.00199862102584617,-0.0044963944663405));
#951=CARTESIAN_POINT('',(-0.0270045781648426,-0.00199862102584617,-0.0044963944663405));
#952=CARTESIAN_POINT('',(0.000595718677799804,-0.00057098083676864,0.005));
#953=CARTESIAN_POINT('',(-0.0214094470540483,-0.00392959380730443,0.005));
#954=CARTESIAN_POINT('',(-0.0214094470540483,-0.00392959380730443,0.0105));
#955=CARTESIAN_POINT('',(-0.0214094470540483,-0.00392959380730443,-0.0105));
#956=CARTESIAN_POINT('',(0.000595718678431216,-0.000570980836727941,0.0105));
#957=CARTESIAN_POINT('',(-0.0214094470540483,0.00278763213384858,0.0105));
#958=CARTESIAN_POINT('',(-0.0214094470540483,0.00278763213384858,0.005));
#959=CARTESIAN_POINT('',(-0.0214094470540483,0.00278763213384858,-0.0105));
#960=CARTESIAN_POINT('',(0.000595718678431216,-0.000570980836727941,-0.0105));
#961=CARTESIAN_POINT('',(0.000595718677799804,-0.00057098083676864,0.00592403465541803));
#962=CARTESIAN_POINT('',(0.000595718677799804,-0.00057098083676864,-0.00592403465541803));
#963=CARTESIAN_POINT('',(0.000595718677799804,-0.00057098083676864,-0.00593121990921616));
#964=CARTESIAN_POINT('',(-0.0216184534531254,0.000856659352390325,-0.00450357972005719));
#965=CARTESIAN_POINT('',(-0.0216184534531254,0.000856659352390325,0.005));
#966=CARTESIAN_POINT('',(-0.0216184534531254,0.000856659352390325,0.00450357972005719));
#967=CARTESIAN_POINT('',(0.000595718677799804,-0.00057098083676864,0.00593121990921616));
#968=CARTESIAN_POINT('',(-0.0202102405049096,-0.00371891826728899,0.005));
#969=CARTESIAN_POINT('',(-0.0202102405049096,-0.00371891826728899,-0.0105));
#970=CARTESIAN_POINT('',(-0.0195035099644797,-0.00359476047449056,-0.0105));
#971=CARTESIAN_POINT('',(-0.0195014204880283,-0.0035943933971259,-0.0105));
#972=CARTESIAN_POINT('',(-0.0195014204880283,-0.0035943933971259,0.0105));
#973=CARTESIAN_POINT('',(-0.0195014204880283,-0.0035943933971259,0.0105));
#974=CARTESIAN_POINT('',(-0.0202102405049096,-0.00371891826728899,0.0105));
#975=CARTESIAN_POINT('',(-0.0195035099644797,-0.00359476047449056,0.0105));
#976=CARTESIAN_POINT('',(-0.0202102405049096,-0.00371891826728899,0.0105));
#977=CARTESIAN_POINT('',(-0.0202102405049096,-0.00371891826728899,-0.0105));
#978=CARTESIAN_POINT('',(2.72351585728358E-16,-5.96311194867027E-18,0.005));
#979=CARTESIAN_POINT('',(-0.0190940890558516,-0.00302372985369912,0.005));
#980=CARTESIAN_POINT('',(-0.0190940890558516,-0.00302372985369912,0.01));
#981=CARTESIAN_POINT('',(-0.0190940890558516,-0.00302372985369912,-0.01));
#982=CARTESIAN_POINT('',(2.72351585728358E-16,-5.96311194867027E-18,-0.01));
#983=CARTESIAN_POINT('',(-0.0192349109393393,0.00193529849290279,-0.01));
#984=CARTESIAN_POINT('',(-0.0192349109393393,0.00193529849290279,0.005));
#985=CARTESIAN_POINT('',(-0.0192349109393393,0.00193529849290279,0.01));
#986=CARTESIAN_POINT('',(2.72351585728358E-16,-5.96311194867027E-18,0.01));
#987=CARTESIAN_POINT('',(-0.0202961791061138,0.00259205421086155,0.005));
#988=CARTESIAN_POINT('',(-0.0196458845633105,0.00247781104393374,0.005));
#989=CARTESIAN_POINT('',(-0.0196458845633105,0.00247781104393374,0.0104990688016913));
#990=CARTESIAN_POINT('',(-0.0196458845633105,0.00247781104393374,-0.0104990688016913));
#991=CARTESIAN_POINT('',(-0.0196458845633105,0.00247781104393374,-0.0104990688016913));
#992=CARTESIAN_POINT('',(-0.0196559007405133,0.00247957067703664,-0.0104996896007973));
#993=CARTESIAN_POINT('',(-0.0196659262402817,0.00248133194791959,-0.0105));
#994=CARTESIAN_POINT('',(-0.0196759610625949,0.0024830948565789,-0.0105));
#995=CARTESIAN_POINT('',(-0.0196759610625949,0.0024830948565789,-0.0105));
#996=CARTESIAN_POINT('',(-0.0202961791061138,0.00259205421086155,-0.0105));
#997=CARTESIAN_POINT('',(-0.0202961791061138,0.00259205421086155,0.0105));
#998=CARTESIAN_POINT('',(-0.0196759610625949,0.0024830948565789,0.0105));
#999=CARTESIAN_POINT('',(-0.0196759610625949,0.0024830948565789,0.0105));
#1000=CARTESIAN_POINT('',(-0.0196659262402817,0.00248133194791959,0.0105));
#1001=CARTESIAN_POINT('',(-0.0196559007405133,0.00247957067703664,0.0104996896007973));
#1002=CARTESIAN_POINT('',(-0.0196458845633105,0.00247781104393374,0.0104990688016913));
#1003=CARTESIAN_POINT('',(-0.0347646125459743,0.000856659352390325,0.005));
#1004=CARTESIAN_POINT('',(-0.0313911810517311,0.000856659352390325,8.97907248552643E-19));
#1005=CARTESIAN_POINT('',(-0.0313911810517311,0.000856659352390325,0.000498846044190148));
#1006=CARTESIAN_POINT('',(-0.0328701869626097,0.000856659352390325,0.005));
#1007=CARTESIAN_POINT('',(-0.0328701869626097,0.000856659352390325,0.0105));
#1008=CARTESIAN_POINT('',(-0.0328701869626097,0.000856659352390325,0.00450357972005719));
#1009=CARTESIAN_POINT('',(-0.0347646125459743,0.000856659352390325,0.00450357972005719));
#1010=CARTESIAN_POINT('',(-0.0323701869626097,0.000856659352390325,-0.00450357972005719));
#1011=CARTESIAN_POINT('',(-0.0328701869626097,0.000856659352390325,-0.00450357972005719));
#1012=CARTESIAN_POINT('',(-0.0328701869626097,0.000856659352390325,0.005));
#1013=CARTESIAN_POINT('',(-0.0328701869626097,0.000856659352390325,-0.0105));
#1014=CARTESIAN_POINT('',(-0.0347646125459743,0.000856659352390325,-0.0105));
#1015=CARTESIAN_POINT('',(-0.0348700731992722,0.000856659352390325,-0.0105));
#1016=CARTESIAN_POINT('',(-0.0348700731992722,0.000856659352390325,0.005));
#1017=CARTESIAN_POINT('',(-0.0348700731992722,0.000856659352390325,0.0105));
#1018=CARTESIAN_POINT('',(-0.0347646125459743,0.000856659352390325,0.0105));
#1019=CARTESIAN_POINT('',(-0.0348700731992722,0.0062845384188953,0.005));
#1020=CARTESIAN_POINT('',(-0.0348700731992722,0.0062845384188953,-0.0105));
#1021=CARTESIAN_POINT('',(-0.0348700731992722,0.00605687552858649,-0.0105));
#1022=CARTESIAN_POINT('',(-0.0348700731992722,0.00605687552858649,0.0105));
#1023=CARTESIAN_POINT('',(-0.0348700731992722,0.00605687552858649,0.0105));
#1024=CARTESIAN_POINT('',(-0.0348700731992722,0.0062845384188953,0.0105));
#1025=CARTESIAN_POINT('',(-0.0363362971693277,0.00655687552858649,0.005));
#1026=CARTESIAN_POINT('',(-0.0363362971693277,0.00655687552858649,0.0105));
#1027=CARTESIAN_POINT('',(-0.0353700731992722,0.00655687552858649,0.0105));
#1028=CARTESIAN_POINT('',(-0.0353700731992722,0.00655687552858649,-0.0105));
#1029=CARTESIAN_POINT('',(-0.0353700731992722,0.00655687552858649,-0.0105));
#1030=CARTESIAN_POINT('',(-0.0363362971693277,0.00655687552858649,-0.0105));
#1031=CARTESIAN_POINT('',(-0.0200329385416726,-0.00116336997539283,-0.0105));
#1032=CARTESIAN_POINT('',(-0.0323855738980721,-0.00128480093128705,-0.0105));
#1033=CARTESIAN_POINT('',(-0.0323737794967318,0.000356672258858319,-0.0105));
#1034=CARTESIAN_POINT('',(-0.0323871103424375,-0.00149863393231417,-0.0105));
#1035=CARTESIAN_POINT('',(-0.0323871103424375,-0.00149863393231417,-0.0105));
#1036=CARTESIAN_POINT('',(-0.0348700731992722,-0.00719883720204234,-0.0105));
#1037=CARTESIAN_POINT('',(-0.0353700731992722,0.00655687552858649,-0.0105));
#1038=CARTESIAN_POINT('',(-0.0328701869626097,0.000856659352390325,-0.0105));
#1039=CARTESIAN_POINT('',(-0.0323855738980721,-0.00128480093128705,0.0105));
#1040=CARTESIAN_POINT('',(-0.0323905638430728,-0.0019792711890399,-0.00451574430314678));
#1041=CARTESIAN_POINT('',(-0.0323871103424375,-0.00149863393231417,-0.0049963815598725));
#1042=CARTESIAN_POINT('',(-0.0323871103424375,-0.00149863393231417,-0.0105));
#1043=CARTESIAN_POINT('',(-0.0323737794967318,0.000356672258858319,0.0105));
#1044=CARTESIAN_POINT('',(-0.0200329385416726,-0.00116336997539283,-0.0105));
#1045=CARTESIAN_POINT('',(2.72351585728358E-16,-5.96311194867027E-18,-0.0105));
#1046=CARTESIAN_POINT('',(-0.0323855738980721,-0.00128480093128705,0.0105));
#1047=CARTESIAN_POINT('',(-0.0323855738980721,-0.00128480093128705,0.0105));
#1048=CARTESIAN_POINT('',(-0.0323737794967318,0.000356672258858319,0.0105));
#1049=CARTESIAN_POINT('',(-0.0323871103424375,-0.00149863393231417,0.0105));
#1050=CARTESIAN_POINT('',(-0.0323871103424375,-0.00149863393231417,0.005));
#1051=CARTESIAN_POINT('',(-0.0323871103424375,-0.00149863393231417,0.0049963815598725));
#1052=CARTESIAN_POINT('',(-0.0323867654421365,-0.00145063280186069,0.00504438269032598));
#1053=CARTESIAN_POINT('',(-0.0323737794967318,0.000356672258858319,0.0105));
#1054=CARTESIAN_POINT('',(-0.0200329385416726,-0.00116336997539283,0.0105));
#1055=CARTESIAN_POINT('',(-0.0259980140069234,0.00484472005060088,0.0105));
#1056=CARTESIAN_POINT('',(-0.0254876924126795,-0.00657907086272163,0.0105));
#1057=CARTESIAN_POINT('',(-0.0238413831184827,-0.00497181455220297,0.0105));
#1058=CARTESIAN_POINT('',(-0.0244337722571475,0.00323746374008221,0.0105));
#1059=CARTESIAN_POINT('',(-0.0200329385416726,-0.00116336997539283,0.0105));
#1060=CARTESIAN_POINT('',(2.72351585728358E-16,-5.96311194867027E-18,0.0105));
#1061=CARTESIAN_POINT('',(-0.0313911810517311,0.00300137897415382,8.97907248552643E-19));
#1062=CARTESIAN_POINT('',(-0.0323871103424375,-0.00149863393231417,0.0105));
#1063=CARTESIAN_POINT('',(-0.0282270889760647,0.00263160401021163,0.00912661950239828));
#1064=CARTESIAN_POINT('',(-0.0200329385416726,-0.00149501549218667,0.005));
#1065=CARTESIAN_POINT('',(-0.0323871103424375,-0.00149863393231417,0.0105));
#1066=CARTESIAN_POINT('',(-0.0309098196429991,-3.19198071699087E-5,-0.00646309568501676));
#1067=CARTESIAN_POINT('',(-0.0270045781648426,-0.00199862102584617,-0.0044963944663405));
#1068=CARTESIAN_POINT('',(-0.0328701869626097,0.000856659352390325,0.005));
#1069=CARTESIAN_POINT('',(-0.0334956270215292,0.0014866095016787,0.00387362957076881));
#1070=CARTESIAN_POINT('',(-0.0347646125459743,0.000856659352390325,0.00450357972005719));
#1071=CARTESIAN_POINT('',(-0.0328701869626097,0.000856659352390325,0.005));
#1072=CARTESIAN_POINT('',(-0.0283018526117273,-0.00374461756503206,-0.00910485663747962));
#1073=CARTESIAN_POINT('',(-0.0200329385416726,0.000360239072447514,-0.005));
#1074=CARTESIAN_POINT('',(-0.0348700731992722,-0.00719883720204234,0.005));
#1075=CARTESIAN_POINT('',(-0.0353700731992722,0.00655687552858649,0.005));
#1076=CARTESIAN_POINT('',(2.72351585728358E-16,-5.96311194867027E-18,0.01));
#1077=CARTESIAN_POINT('',(-0.0195014204880283,-0.0035943933971259,0.0104999954996369));
#1078=CARTESIAN_POINT('',(-0.0193436982782478,-0.00356668489958491,0.0104993160850428));
#1079=CARTESIAN_POINT('',(-0.019105370336234,-0.0033639269025117,0.01033875599995));
#1080=CARTESIAN_POINT('',(-0.0190767952580636,-0.00313293581159088,0.0101119874806404));
#1081=CARTESIAN_POINT('',(-0.0190940890558516,-0.00302372985369912,0.01));
#1082=CARTESIAN_POINT('',(-0.0196458845633105,0.00247781104393374,0.0104990688016913));
#1083=CARTESIAN_POINT('',(-0.019493156874911,0.00245097997946699,0.0104896027938032));
#1084=CARTESIAN_POINT('',(-0.0192641885322171,0.00226380063612859,0.0103282588722828));
#1085=CARTESIAN_POINT('',(-0.0192241787655032,0.00204196545341498,0.010108582997399));
#1086=CARTESIAN_POINT('',(-0.0192349109393393,0.00193529849290279,0.01));
#1087=CARTESIAN_POINT('',(-0.0197323992064833,0.00198535270405443,0.005));
#1088=CARTESIAN_POINT('',(-0.0196458845633105,0.00247781104393374,-0.0104990688016913));
#1089=CARTESIAN_POINT('',(-0.019493156874911,0.00245097997946699,-0.0104896027938032));
#1090=CARTESIAN_POINT('',(-0.0192641885322171,0.00226380063612859,-0.0103282588722828));
#1091=CARTESIAN_POINT('',(-0.0192241787655032,0.00204196545341498,-0.010108582997399));
#1092=CARTESIAN_POINT('',(-0.0192349109393393,0.00193529849290279,-0.01));
#1093=CARTESIAN_POINT('',(-0.0195879351312012,-0.00310193505724658,0.005));
#1094=CARTESIAN_POINT('',(-0.0195014204880283,-0.0035943933971259,-0.0104999954996369));
#1095=CARTESIAN_POINT('',(-0.0193436982782478,-0.00356668489958491,-0.0104993160850428));
#1096=CARTESIAN_POINT('',(-0.019105370336234,-0.0033639269025117,-0.01033875599995));
#1097=CARTESIAN_POINT('',(-0.0190767952580636,-0.00313293581159088,-0.0101119874806404));
#1098=CARTESIAN_POINT('',(-0.0190940890558516,-0.00302372985369912,-0.01));
#1099=CARTESIAN_POINT('',(2.72351585728358E-16,-5.96311194867027E-18,-0.01));
#1100=MECHANICAL_DESIGN_GEOMETRIC_PRESENTATION_REPRESENTATION('',(#659),
#1101);
#1101=(
GEOMETRIC_REPRESENTATION_CONTEXT(3)
GLOBAL_UNCERTAINTY_ASSIGNED_CONTEXT((#1102))
GLOBAL_UNIT_ASSIGNED_CONTEXT((#1105,#1104,#1103))
REPRESENTATION_CONTEXT('Part 1','TOP_LEVEL_ASSEMBLY_PART')
);
#1102=UNCERTAINTY_MEASURE_WITH_UNIT(LENGTH_MEASURE(2.E-5),#1105,
'DISTANCE_ACCURACY_VALUE','Maximum Tolerance applied to model');
#1103=(
NAMED_UNIT(*)
SI_UNIT($,.STERADIAN.)
SOLID_ANGLE_UNIT()
);
#1104=(
NAMED_UNIT(*)
PLANE_ANGLE_UNIT()
SI_UNIT($,.RADIAN.)
);
#1105=(
LENGTH_UNIT()
NAMED_UNIT(*)
SI_UNIT($,.METRE.)
);
#1106=PRODUCT_DEFINITION_SHAPE('','',#1107);
#1107=PRODUCT_DEFINITION('','',#1109,#1108);
#1108=PRODUCT_DEFINITION_CONTEXT('',#1115,'design');
#1109=PRODUCT_DEFINITION_FORMATION_WITH_SPECIFIED_SOURCE('','',#1111,
 .NOT_KNOWN.);
#1110=PRODUCT_RELATED_PRODUCT_CATEGORY('','',(#1111));
#1111=PRODUCT('Part 1','Part 1','Part 1',(#1113));
#1112=PRODUCT_CATEGORY('','');
#1113=PRODUCT_CONTEXT('',#1115,'mechanical');
#1114=APPLICATION_PROTOCOL_DEFINITION('international standard',
'ap242_managed_model_based_3d_engineering',2020,#1115);
#1115=APPLICATION_CONTEXT('managed model based 3d engineering');
ENDSEC;
END-ISO-10303-21;
