ISO-10303-21;
HEADER;
/* Generated by software containing ST-Developer
 * from STEP Tools, Inc. (www.steptools.com) 
 */
/* OPTION: using custom renumber hook */

FILE_DESCRIPTION(
/* description */ ('STEP AP242 Edition 2',
'CAx-IF Rec.Pracs.---Representation and Presentation of Product Manufa
cturing Information (PMI)---4.0---2014-10-13',
'CAx-IF Rec.Pracs.---3D Tessellated Geometry---0.4---2014-09-14','2;1',
'CAx-IF Rec.Pracs.---User Defined Attributes---1.5---2016-08-15'),
/* implementation_level */ '2;1');

FILE_NAME(
/* name */ 'Stator Front Cover',
/* time_stamp */ '2026-07-31T11:36:34Z',
/* author */ (''),
/* organization */ (''),
/* preprocessor_version */ 'ST-DEVELOPER v20',
/* originating_system */ 'ONSHAPE BY PTC INC, 1.218',
/* authorisation */ '  ');

FILE_SCHEMA (('AP242_MANAGED_MODEL_BASED_3D_ENGINEERING_MIM_LF { 1 0 10303 442 3 1 4 }'));
ENDSEC;

DATA;
#10=SHAPE_REPRESENTATION_RELATIONSHIP('','',#873,#11);
#11=ADVANCED_BREP_SHAPE_REPRESENTATION('',(#871),#1473);
#12=CONICAL_SURFACE('',#933,0.0056,0.785398163397448);
#13=CONICAL_SURFACE('',#935,0.034,0.785398163397449);
#14=CONICAL_SURFACE('',#938,0.034,0.785398163397449);
#15=CONICAL_SURFACE('',#941,0.034,0.785398163397449);
#16=CONICAL_SURFACE('',#944,0.034,0.785398163397449);
#17=CONICAL_SURFACE('',#947,0.034,0.785398163397449);
#18=CONICAL_SURFACE('',#950,0.034,0.785398163397449);
#19=B_SPLINE_CURVE_WITH_KNOTS('',3,(#1386,#1387,#1388,#1389),
 .UNSPECIFIED.,.F.,.F.,(4,4),(0.0302603163578649,0.0323025433166381),
 .UNSPECIFIED.);
#20=B_SPLINE_CURVE_WITH_KNOTS('',3,(#1390,#1391,#1392,#1393),
 .UNSPECIFIED.,.F.,.F.,(4,4),(0.0302603163578649,0.0323025433166401),
 .UNSPECIFIED.);
#21=B_SPLINE_CURVE_WITH_KNOTS('',3,(#1397,#1398,#1399,#1400),
 .UNSPECIFIED.,.F.,.F.,(4,4),(0.,0.0018141046361686),.UNSPECIFIED.);
#22=B_SPLINE_CURVE_WITH_KNOTS('',3,(#1402,#1403,#1404,#1405),
 .UNSPECIFIED.,.F.,.F.,(4,4),(0.,0.00181410463616857),.UNSPECIFIED.);
#23=B_SPLINE_CURVE_WITH_KNOTS('',3,(#1409,#1410,#1411,#1412),
 .UNSPECIFIED.,.F.,.F.,(4,4),(0.,0.00181410463616861),.UNSPECIFIED.);
#24=B_SPLINE_CURVE_WITH_KNOTS('',3,(#1414,#1415,#1416,#1417),
 .UNSPECIFIED.,.F.,.F.,(4,4),(0.,0.0018141046361686),.UNSPECIFIED.);
#25=B_SPLINE_CURVE_WITH_KNOTS('',3,(#1421,#1422,#1423,#1424),
 .UNSPECIFIED.,.F.,.F.,(4,4),(0.,0.00181410463616861),.UNSPECIFIED.);
#26=B_SPLINE_CURVE_WITH_KNOTS('',3,(#1426,#1427,#1428,#1429),
 .UNSPECIFIED.,.F.,.F.,(4,4),(0.,0.00181410463616861),.UNSPECIFIED.);
#27=B_SPLINE_CURVE_WITH_KNOTS('',3,(#1433,#1434,#1435,#1436),
 .UNSPECIFIED.,.F.,.F.,(4,4),(0.,0.00181410463616861),.UNSPECIFIED.);
#28=B_SPLINE_CURVE_WITH_KNOTS('',3,(#1438,#1439,#1440,#1441),
 .UNSPECIFIED.,.F.,.F.,(4,4),(0.,0.0018141046361686),.UNSPECIFIED.);
#29=B_SPLINE_CURVE_WITH_KNOTS('',3,(#1445,#1446,#1447,#1448),
 .UNSPECIFIED.,.F.,.F.,(4,4),(0.,0.00181410463616857),.UNSPECIFIED.);
#30=B_SPLINE_CURVE_WITH_KNOTS('',3,(#1450,#1451,#1452,#1453),
 .UNSPECIFIED.,.F.,.F.,(4,4),(0.,0.0018141046361686),.UNSPECIFIED.);
#31=B_SPLINE_CURVE_WITH_KNOTS('',3,(#1457,#1458,#1459,#1460),
 .UNSPECIFIED.,.F.,.F.,(4,4),(0.,0.00181410463616862),.UNSPECIFIED.);
#32=B_SPLINE_CURVE_WITH_KNOTS('',3,(#1462,#1463,#1464,#1465),
 .UNSPECIFIED.,.F.,.F.,(4,4),(0.,0.00181410463616859),.UNSPECIFIED.);
#33=TOROIDAL_SURFACE('',#932,0.0400152307082019,0.005);
#34=PLANE('',#879);
#35=PLANE('',#880);
#36=PLANE('',#881);
#37=PLANE('',#882);
#38=PLANE('',#883);
#39=PLANE('',#884);
#40=PLANE('',#885);
#41=PLANE('',#886);
#42=PLANE('',#887);
#43=PLANE('',#888);
#44=PLANE('',#889);
#45=PLANE('',#890);
#46=PLANE('',#912);
#47=PLANE('',#915);
#48=PLANE('',#926);
#49=PLANE('',#931);
#50=PLANE('',#934);
#51=PLANE('',#936);
#52=PLANE('',#937);
#53=PLANE('',#939);
#54=PLANE('',#940);
#55=PLANE('',#942);
#56=PLANE('',#943);
#57=PLANE('',#945);
#58=PLANE('',#946);
#59=PLANE('',#948);
#60=PLANE('',#949);
#61=PLANE('',#951);
#62=PLANE('',#952);
#63=PLANE('',#953);
#64=PLANE('',#954);
#65=LINE('',#1196,#137);
#66=LINE('',#1200,#138);
#67=LINE('',#1202,#139);
#68=LINE('',#1205,#140);
#69=LINE('',#1207,#141);
#70=LINE('',#1209,#142);
#71=LINE('',#1211,#143);
#72=LINE('',#1213,#144);
#73=LINE('',#1215,#145);
#74=LINE('',#1217,#146);
#75=LINE('',#1220,#147);
#76=LINE('',#1222,#148);
#77=LINE('',#1224,#149);
#78=LINE('',#1226,#150);
#79=LINE('',#1228,#151);
#80=LINE('',#1230,#152);
#81=LINE('',#1232,#153);
#82=LINE('',#1235,#154);
#83=LINE('',#1237,#155);
#84=LINE('',#1239,#156);
#85=LINE('',#1241,#157);
#86=LINE('',#1243,#158);
#87=LINE('',#1245,#159);
#88=LINE('',#1247,#160);
#89=LINE('',#1250,#161);
#90=LINE('',#1252,#162);
#91=LINE('',#1254,#163);
#92=LINE('',#1256,#164);
#93=LINE('',#1258,#165);
#94=LINE('',#1260,#166);
#95=LINE('',#1262,#167);
#96=LINE('',#1265,#168);
#97=LINE('',#1267,#169);
#98=LINE('',#1269,#170);
#99=LINE('',#1271,#171);
#100=LINE('',#1273,#172);
#101=LINE('',#1275,#173);
#102=LINE('',#1277,#174);
#103=LINE('',#1280,#175);
#104=LINE('',#1282,#176);
#105=LINE('',#1284,#177);
#106=LINE('',#1286,#178);
#107=LINE('',#1288,#179);
#108=LINE('',#1290,#180);
#109=LINE('',#1318,#181);
#110=LINE('',#1322,#182);
#111=LINE('',#1329,#183);
#112=LINE('',#1331,#184);
#113=LINE('',#1335,#185);
#114=LINE('',#1337,#186);
#115=LINE('',#1341,#187);
#116=LINE('',#1343,#188);
#117=LINE('',#1344,#189);
#118=LINE('',#1347,#190);
#119=LINE('',#1353,#191);
#120=LINE('',#1355,#192);
#121=LINE('',#1359,#193);
#122=LINE('',#1361,#194);
#123=LINE('',#1365,#195);
#124=LINE('',#1367,#196);
#125=LINE('',#1371,#197);
#126=LINE('',#1373,#198);
#127=LINE('',#1377,#199);
#128=LINE('',#1379,#200);
#129=LINE('',#1396,#201);
#130=LINE('',#1408,#202);
#131=LINE('',#1420,#203);
#132=LINE('',#1432,#204);
#133=LINE('',#1444,#205);
#134=LINE('',#1456,#206);
#135=LINE('',#1468,#207);
#136=LINE('',#1469,#208);
#137=VECTOR('',#963,1.);
#138=VECTOR('',#966,1.);
#139=VECTOR('',#969,1.);
#140=VECTOR('',#970,1.);
#141=VECTOR('',#971,1.);
#142=VECTOR('',#972,1.);
#143=VECTOR('',#975,1.);
#144=VECTOR('',#976,1.);
#145=VECTOR('',#977,1.);
#146=VECTOR('',#980,1.);
#147=VECTOR('',#981,1.);
#148=VECTOR('',#982,1.);
#149=VECTOR('',#983,1.);
#150=VECTOR('',#986,1.);
#151=VECTOR('',#987,1.);
#152=VECTOR('',#988,1.);
#153=VECTOR('',#991,1.);
#154=VECTOR('',#992,1.);
#155=VECTOR('',#993,1.);
#156=VECTOR('',#994,1.);
#157=VECTOR('',#997,1.);
#158=VECTOR('',#998,1.);
#159=VECTOR('',#999,1.);
#160=VECTOR('',#1002,1.);
#161=VECTOR('',#1003,1.);
#162=VECTOR('',#1004,1.);
#163=VECTOR('',#1005,1.);
#164=VECTOR('',#1008,1.);
#165=VECTOR('',#1009,1.);
#166=VECTOR('',#1010,1.);
#167=VECTOR('',#1013,1.);
#168=VECTOR('',#1014,1.);
#169=VECTOR('',#1015,1.);
#170=VECTOR('',#1016,1.);
#171=VECTOR('',#1019,1.);
#172=VECTOR('',#1020,1.);
#173=VECTOR('',#1021,1.);
#174=VECTOR('',#1024,1.);
#175=VECTOR('',#1025,1.);
#176=VECTOR('',#1026,1.);
#177=VECTOR('',#1027,1.);
#178=VECTOR('',#1030,1.);
#179=VECTOR('',#1031,1.);
#180=VECTOR('',#1032,1.);
#181=VECTOR('',#1079,1.);
#182=VECTOR('',#1082,1.);
#183=VECTOR('',#1089,1.);
#184=VECTOR('',#1090,1.);
#185=VECTOR('',#1093,1.);
#186=VECTOR('',#1094,1.);
#187=VECTOR('',#1097,1.);
#188=VECTOR('',#1098,1.);
#189=VECTOR('',#1099,1.);
#190=VECTOR('',#1100,1.);
#191=VECTOR('',#1105,1.);
#192=VECTOR('',#1106,1.);
#193=VECTOR('',#1109,1.);
#194=VECTOR('',#1110,1.);
#195=VECTOR('',#1115,1.);
#196=VECTOR('',#1116,1.);
#197=VECTOR('',#1121,1.);
#198=VECTOR('',#1122,1.);
#199=VECTOR('',#1127,1.);
#200=VECTOR('',#1128,1.);
#201=VECTOR('',#1141,1.);
#202=VECTOR('',#1148,1.);
#203=VECTOR('',#1155,1.);
#204=VECTOR('',#1162,1.);
#205=VECTOR('',#1169,1.);
#206=VECTOR('',#1176,1.);
#207=VECTOR('',#1183,1.);
#208=VECTOR('',#1184,1.);
#209=ORIENTED_EDGE('',*,*,#443,.F.);
#210=ORIENTED_EDGE('',*,*,#444,.F.);
#211=ORIENTED_EDGE('',*,*,#445,.F.);
#212=ORIENTED_EDGE('',*,*,#446,.T.);
#213=ORIENTED_EDGE('',*,*,#447,.T.);
#214=ORIENTED_EDGE('',*,*,#448,.T.);
#215=ORIENTED_EDGE('',*,*,#449,.T.);
#216=ORIENTED_EDGE('',*,*,#450,.F.);
#217=ORIENTED_EDGE('',*,*,#451,.T.);
#218=ORIENTED_EDGE('',*,*,#450,.T.);
#219=ORIENTED_EDGE('',*,*,#452,.T.);
#220=ORIENTED_EDGE('',*,*,#453,.F.);
#221=ORIENTED_EDGE('',*,*,#454,.F.);
#222=ORIENTED_EDGE('',*,*,#455,.T.);
#223=ORIENTED_EDGE('',*,*,#456,.T.);
#224=ORIENTED_EDGE('',*,*,#457,.F.);
#225=ORIENTED_EDGE('',*,*,#458,.T.);
#226=ORIENTED_EDGE('',*,*,#457,.T.);
#227=ORIENTED_EDGE('',*,*,#459,.T.);
#228=ORIENTED_EDGE('',*,*,#460,.F.);
#229=ORIENTED_EDGE('',*,*,#461,.F.);
#230=ORIENTED_EDGE('',*,*,#462,.T.);
#231=ORIENTED_EDGE('',*,*,#463,.T.);
#232=ORIENTED_EDGE('',*,*,#464,.F.);
#233=ORIENTED_EDGE('',*,*,#465,.T.);
#234=ORIENTED_EDGE('',*,*,#464,.T.);
#235=ORIENTED_EDGE('',*,*,#466,.T.);
#236=ORIENTED_EDGE('',*,*,#467,.F.);
#237=ORIENTED_EDGE('',*,*,#468,.F.);
#238=ORIENTED_EDGE('',*,*,#469,.T.);
#239=ORIENTED_EDGE('',*,*,#470,.T.);
#240=ORIENTED_EDGE('',*,*,#471,.F.);
#241=ORIENTED_EDGE('',*,*,#472,.T.);
#242=ORIENTED_EDGE('',*,*,#471,.T.);
#243=ORIENTED_EDGE('',*,*,#473,.T.);
#244=ORIENTED_EDGE('',*,*,#474,.F.);
#245=ORIENTED_EDGE('',*,*,#475,.F.);
#246=ORIENTED_EDGE('',*,*,#476,.T.);
#247=ORIENTED_EDGE('',*,*,#477,.T.);
#248=ORIENTED_EDGE('',*,*,#478,.F.);
#249=ORIENTED_EDGE('',*,*,#479,.T.);
#250=ORIENTED_EDGE('',*,*,#478,.T.);
#251=ORIENTED_EDGE('',*,*,#480,.T.);
#252=ORIENTED_EDGE('',*,*,#481,.F.);
#253=ORIENTED_EDGE('',*,*,#482,.F.);
#254=ORIENTED_EDGE('',*,*,#483,.T.);
#255=ORIENTED_EDGE('',*,*,#484,.T.);
#256=ORIENTED_EDGE('',*,*,#485,.F.);
#257=ORIENTED_EDGE('',*,*,#486,.T.);
#258=ORIENTED_EDGE('',*,*,#485,.T.);
#259=ORIENTED_EDGE('',*,*,#487,.T.);
#260=ORIENTED_EDGE('',*,*,#488,.F.);
#261=ORIENTED_EDGE('',*,*,#489,.F.);
#262=ORIENTED_EDGE('',*,*,#490,.T.);
#263=ORIENTED_EDGE('',*,*,#491,.T.);
#264=ORIENTED_EDGE('',*,*,#453,.T.);
#265=ORIENTED_EDGE('',*,*,#492,.T.);
#266=ORIENTED_EDGE('',*,*,#448,.F.);
#267=ORIENTED_EDGE('',*,*,#493,.T.);
#268=ORIENTED_EDGE('',*,*,#460,.T.);
#269=ORIENTED_EDGE('',*,*,#494,.T.);
#270=ORIENTED_EDGE('',*,*,#455,.F.);
#271=ORIENTED_EDGE('',*,*,#495,.T.);
#272=ORIENTED_EDGE('',*,*,#467,.T.);
#273=ORIENTED_EDGE('',*,*,#496,.T.);
#274=ORIENTED_EDGE('',*,*,#462,.F.);
#275=ORIENTED_EDGE('',*,*,#497,.T.);
#276=ORIENTED_EDGE('',*,*,#474,.T.);
#277=ORIENTED_EDGE('',*,*,#498,.T.);
#278=ORIENTED_EDGE('',*,*,#469,.F.);
#279=ORIENTED_EDGE('',*,*,#499,.T.);
#280=ORIENTED_EDGE('',*,*,#481,.T.);
#281=ORIENTED_EDGE('',*,*,#500,.T.);
#282=ORIENTED_EDGE('',*,*,#476,.F.);
#283=ORIENTED_EDGE('',*,*,#501,.T.);
#284=ORIENTED_EDGE('',*,*,#488,.T.);
#285=ORIENTED_EDGE('',*,*,#502,.T.);
#286=ORIENTED_EDGE('',*,*,#483,.F.);
#287=ORIENTED_EDGE('',*,*,#503,.T.);
#288=ORIENTED_EDGE('',*,*,#504,.F.);
#289=ORIENTED_EDGE('',*,*,#505,.T.);
#290=ORIENTED_EDGE('',*,*,#506,.T.);
#291=ORIENTED_EDGE('',*,*,#507,.F.);
#292=ORIENTED_EDGE('',*,*,#486,.F.);
#293=ORIENTED_EDGE('',*,*,#489,.T.);
#294=ORIENTED_EDGE('',*,*,#503,.F.);
#295=ORIENTED_EDGE('',*,*,#479,.F.);
#296=ORIENTED_EDGE('',*,*,#482,.T.);
#297=ORIENTED_EDGE('',*,*,#501,.F.);
#298=ORIENTED_EDGE('',*,*,#472,.F.);
#299=ORIENTED_EDGE('',*,*,#475,.T.);
#300=ORIENTED_EDGE('',*,*,#499,.F.);
#301=ORIENTED_EDGE('',*,*,#465,.F.);
#302=ORIENTED_EDGE('',*,*,#468,.T.);
#303=ORIENTED_EDGE('',*,*,#497,.F.);
#304=ORIENTED_EDGE('',*,*,#458,.F.);
#305=ORIENTED_EDGE('',*,*,#461,.T.);
#306=ORIENTED_EDGE('',*,*,#495,.F.);
#307=ORIENTED_EDGE('',*,*,#451,.F.);
#308=ORIENTED_EDGE('',*,*,#454,.T.);
#309=ORIENTED_EDGE('',*,*,#493,.F.);
#310=ORIENTED_EDGE('',*,*,#491,.F.);
#311=ORIENTED_EDGE('',*,*,#508,.T.);
#312=ORIENTED_EDGE('',*,*,#509,.T.);
#313=ORIENTED_EDGE('',*,*,#510,.T.);
#314=ORIENTED_EDGE('',*,*,#511,.T.);
#315=ORIENTED_EDGE('',*,*,#512,.T.);
#316=ORIENTED_EDGE('',*,*,#513,.T.);
#317=ORIENTED_EDGE('',*,*,#514,.T.);
#318=ORIENTED_EDGE('',*,*,#515,.T.);
#319=ORIENTED_EDGE('',*,*,#516,.T.);
#320=ORIENTED_EDGE('',*,*,#517,.T.);
#321=ORIENTED_EDGE('',*,*,#518,.T.);
#322=ORIENTED_EDGE('',*,*,#519,.T.);
#323=ORIENTED_EDGE('',*,*,#520,.T.);
#324=ORIENTED_EDGE('',*,*,#521,.T.);
#325=ORIENTED_EDGE('',*,*,#522,.T.);
#326=ORIENTED_EDGE('',*,*,#523,.T.);
#327=ORIENTED_EDGE('',*,*,#524,.T.);
#328=ORIENTED_EDGE('',*,*,#525,.T.);
#329=ORIENTED_EDGE('',*,*,#526,.T.);
#330=ORIENTED_EDGE('',*,*,#527,.T.);
#331=ORIENTED_EDGE('',*,*,#528,.F.);
#332=ORIENTED_EDGE('',*,*,#504,.T.);
#333=ORIENTED_EDGE('',*,*,#529,.T.);
#334=ORIENTED_EDGE('',*,*,#530,.T.);
#335=ORIENTED_EDGE('',*,*,#531,.F.);
#336=ORIENTED_EDGE('',*,*,#530,.F.);
#337=ORIENTED_EDGE('',*,*,#532,.T.);
#338=ORIENTED_EDGE('',*,*,#533,.F.);
#339=ORIENTED_EDGE('',*,*,#534,.F.);
#340=ORIENTED_EDGE('',*,*,#533,.T.);
#341=ORIENTED_EDGE('',*,*,#535,.T.);
#342=ORIENTED_EDGE('',*,*,#536,.T.);
#343=ORIENTED_EDGE('',*,*,#537,.T.);
#344=ORIENTED_EDGE('',*,*,#537,.F.);
#345=ORIENTED_EDGE('',*,*,#443,.T.);
#346=ORIENTED_EDGE('',*,*,#538,.F.);
#347=ORIENTED_EDGE('',*,*,#446,.F.);
#348=ORIENTED_EDGE('',*,*,#539,.T.);
#349=ORIENTED_EDGE('',*,*,#506,.F.);
#350=ORIENTED_EDGE('',*,*,#527,.F.);
#351=ORIENTED_EDGE('',*,*,#490,.F.);
#352=ORIENTED_EDGE('',*,*,#508,.F.);
#353=ORIENTED_EDGE('',*,*,#540,.F.);
#354=ORIENTED_EDGE('',*,*,#456,.F.);
#355=ORIENTED_EDGE('',*,*,#541,.F.);
#356=ORIENTED_EDGE('',*,*,#511,.F.);
#357=ORIENTED_EDGE('',*,*,#541,.T.);
#358=ORIENTED_EDGE('',*,*,#494,.F.);
#359=ORIENTED_EDGE('',*,*,#542,.F.);
#360=ORIENTED_EDGE('',*,*,#509,.F.);
#361=ORIENTED_EDGE('',*,*,#540,.T.);
#362=ORIENTED_EDGE('',*,*,#510,.F.);
#363=ORIENTED_EDGE('',*,*,#542,.T.);
#364=ORIENTED_EDGE('',*,*,#459,.F.);
#365=ORIENTED_EDGE('',*,*,#543,.F.);
#366=ORIENTED_EDGE('',*,*,#484,.F.);
#367=ORIENTED_EDGE('',*,*,#544,.F.);
#368=ORIENTED_EDGE('',*,*,#514,.F.);
#369=ORIENTED_EDGE('',*,*,#544,.T.);
#370=ORIENTED_EDGE('',*,*,#502,.F.);
#371=ORIENTED_EDGE('',*,*,#545,.F.);
#372=ORIENTED_EDGE('',*,*,#512,.F.);
#373=ORIENTED_EDGE('',*,*,#543,.T.);
#374=ORIENTED_EDGE('',*,*,#513,.F.);
#375=ORIENTED_EDGE('',*,*,#545,.T.);
#376=ORIENTED_EDGE('',*,*,#487,.F.);
#377=ORIENTED_EDGE('',*,*,#546,.F.);
#378=ORIENTED_EDGE('',*,*,#477,.F.);
#379=ORIENTED_EDGE('',*,*,#547,.F.);
#380=ORIENTED_EDGE('',*,*,#517,.F.);
#381=ORIENTED_EDGE('',*,*,#547,.T.);
#382=ORIENTED_EDGE('',*,*,#500,.F.);
#383=ORIENTED_EDGE('',*,*,#548,.F.);
#384=ORIENTED_EDGE('',*,*,#515,.F.);
#385=ORIENTED_EDGE('',*,*,#546,.T.);
#386=ORIENTED_EDGE('',*,*,#516,.F.);
#387=ORIENTED_EDGE('',*,*,#548,.T.);
#388=ORIENTED_EDGE('',*,*,#480,.F.);
#389=ORIENTED_EDGE('',*,*,#549,.F.);
#390=ORIENTED_EDGE('',*,*,#518,.F.);
#391=ORIENTED_EDGE('',*,*,#550,.F.);
#392=ORIENTED_EDGE('',*,*,#473,.F.);
#393=ORIENTED_EDGE('',*,*,#550,.T.);
#394=ORIENTED_EDGE('',*,*,#520,.F.);
#395=ORIENTED_EDGE('',*,*,#551,.F.);
#396=ORIENTED_EDGE('',*,*,#498,.F.);
#397=ORIENTED_EDGE('',*,*,#549,.T.);
#398=ORIENTED_EDGE('',*,*,#470,.F.);
#399=ORIENTED_EDGE('',*,*,#551,.T.);
#400=ORIENTED_EDGE('',*,*,#519,.F.);
#401=ORIENTED_EDGE('',*,*,#552,.F.);
#402=ORIENTED_EDGE('',*,*,#463,.F.);
#403=ORIENTED_EDGE('',*,*,#553,.F.);
#404=ORIENTED_EDGE('',*,*,#523,.F.);
#405=ORIENTED_EDGE('',*,*,#553,.T.);
#406=ORIENTED_EDGE('',*,*,#496,.F.);
#407=ORIENTED_EDGE('',*,*,#554,.F.);
#408=ORIENTED_EDGE('',*,*,#521,.F.);
#409=ORIENTED_EDGE('',*,*,#552,.T.);
#410=ORIENTED_EDGE('',*,*,#522,.F.);
#411=ORIENTED_EDGE('',*,*,#554,.T.);
#412=ORIENTED_EDGE('',*,*,#466,.F.);
#413=ORIENTED_EDGE('',*,*,#555,.F.);
#414=ORIENTED_EDGE('',*,*,#449,.F.);
#415=ORIENTED_EDGE('',*,*,#556,.F.);
#416=ORIENTED_EDGE('',*,*,#526,.F.);
#417=ORIENTED_EDGE('',*,*,#556,.T.);
#418=ORIENTED_EDGE('',*,*,#492,.F.);
#419=ORIENTED_EDGE('',*,*,#557,.F.);
#420=ORIENTED_EDGE('',*,*,#524,.F.);
#421=ORIENTED_EDGE('',*,*,#555,.T.);
#422=ORIENTED_EDGE('',*,*,#525,.F.);
#423=ORIENTED_EDGE('',*,*,#557,.T.);
#424=ORIENTED_EDGE('',*,*,#452,.F.);
#425=ORIENTED_EDGE('',*,*,#444,.T.);
#426=ORIENTED_EDGE('',*,*,#558,.F.);
#427=ORIENTED_EDGE('',*,*,#536,.F.);
#428=ORIENTED_EDGE('',*,*,#559,.T.);
#429=ORIENTED_EDGE('',*,*,#528,.T.);
#430=ORIENTED_EDGE('',*,*,#531,.T.);
#431=ORIENTED_EDGE('',*,*,#534,.T.);
#432=ORIENTED_EDGE('',*,*,#558,.T.);
#433=ORIENTED_EDGE('',*,*,#447,.F.);
#434=ORIENTED_EDGE('',*,*,#538,.T.);
#435=ORIENTED_EDGE('',*,*,#505,.F.);
#436=ORIENTED_EDGE('',*,*,#507,.T.);
#437=ORIENTED_EDGE('',*,*,#539,.F.);
#438=ORIENTED_EDGE('',*,*,#445,.T.);
#439=ORIENTED_EDGE('',*,*,#559,.F.);
#440=ORIENTED_EDGE('',*,*,#535,.F.);
#441=ORIENTED_EDGE('',*,*,#532,.F.);
#442=ORIENTED_EDGE('',*,*,#529,.F.);
#443=EDGE_CURVE('',#560,#560,#634,.T.);
#444=EDGE_CURVE('',#561,#562,#635,.T.);
#445=EDGE_CURVE('',#563,#561,#65,.F.);
#446=EDGE_CURVE('',#563,#564,#636,.T.);
#447=EDGE_CURVE('',#564,#562,#66,.F.);
#448=EDGE_CURVE('',#565,#566,#67,.T.);
#449=EDGE_CURVE('',#566,#567,#68,.T.);
#450=EDGE_CURVE('',#568,#567,#69,.T.);
#451=EDGE_CURVE('',#568,#565,#70,.T.);
#452=EDGE_CURVE('',#567,#569,#71,.T.);
#453=EDGE_CURVE('',#570,#569,#72,.T.);
#454=EDGE_CURVE('',#568,#570,#73,.T.);
#455=EDGE_CURVE('',#571,#572,#74,.T.);
#456=EDGE_CURVE('',#572,#573,#75,.T.);
#457=EDGE_CURVE('',#574,#573,#76,.T.);
#458=EDGE_CURVE('',#574,#571,#77,.T.);
#459=EDGE_CURVE('',#573,#575,#78,.T.);
#460=EDGE_CURVE('',#576,#575,#79,.T.);
#461=EDGE_CURVE('',#574,#576,#80,.T.);
#462=EDGE_CURVE('',#577,#578,#81,.T.);
#463=EDGE_CURVE('',#578,#579,#82,.T.);
#464=EDGE_CURVE('',#580,#579,#83,.T.);
#465=EDGE_CURVE('',#580,#577,#84,.T.);
#466=EDGE_CURVE('',#579,#581,#85,.T.);
#467=EDGE_CURVE('',#582,#581,#86,.T.);
#468=EDGE_CURVE('',#580,#582,#87,.T.);
#469=EDGE_CURVE('',#583,#584,#88,.T.);
#470=EDGE_CURVE('',#584,#585,#89,.T.);
#471=EDGE_CURVE('',#586,#585,#90,.T.);
#472=EDGE_CURVE('',#586,#583,#91,.T.);
#473=EDGE_CURVE('',#585,#587,#92,.T.);
#474=EDGE_CURVE('',#588,#587,#93,.T.);
#475=EDGE_CURVE('',#586,#588,#94,.T.);
#476=EDGE_CURVE('',#589,#590,#95,.T.);
#477=EDGE_CURVE('',#590,#591,#96,.T.);
#478=EDGE_CURVE('',#592,#591,#97,.T.);
#479=EDGE_CURVE('',#592,#589,#98,.T.);
#480=EDGE_CURVE('',#591,#593,#99,.T.);
#481=EDGE_CURVE('',#594,#593,#100,.T.);
#482=EDGE_CURVE('',#592,#594,#101,.T.);
#483=EDGE_CURVE('',#595,#596,#102,.T.);
#484=EDGE_CURVE('',#596,#597,#103,.T.);
#485=EDGE_CURVE('',#598,#597,#104,.T.);
#486=EDGE_CURVE('',#598,#595,#105,.T.);
#487=EDGE_CURVE('',#597,#599,#106,.T.);
#488=EDGE_CURVE('',#600,#599,#107,.T.);
#489=EDGE_CURVE('',#598,#600,#108,.T.);
#490=EDGE_CURVE('',#601,#601,#637,.F.);
#491=EDGE_CURVE('',#602,#602,#638,.T.);
#492=EDGE_CURVE('',#569,#566,#639,.F.);
#493=EDGE_CURVE('',#565,#570,#640,.T.);
#494=EDGE_CURVE('',#575,#572,#641,.F.);
#495=EDGE_CURVE('',#571,#576,#642,.T.);
#496=EDGE_CURVE('',#581,#578,#643,.F.);
#497=EDGE_CURVE('',#577,#582,#644,.T.);
#498=EDGE_CURVE('',#587,#584,#645,.F.);
#499=EDGE_CURVE('',#583,#588,#646,.T.);
#500=EDGE_CURVE('',#593,#590,#647,.F.);
#501=EDGE_CURVE('',#589,#594,#648,.T.);
#502=EDGE_CURVE('',#599,#596,#649,.F.);
#503=EDGE_CURVE('',#595,#600,#650,.T.);
#504=EDGE_CURVE('',#603,#604,#651,.F.);
#505=EDGE_CURVE('',#603,#605,#109,.T.);
#506=EDGE_CURVE('',#605,#606,#652,.F.);
#507=EDGE_CURVE('',#604,#606,#110,.T.);
#508=EDGE_CURVE('',#607,#607,#653,.T.);
#509=EDGE_CURVE('',#608,#609,#654,.T.);
#510=EDGE_CURVE('',#609,#610,#111,.T.);
#511=EDGE_CURVE('',#610,#608,#112,.T.);
#512=EDGE_CURVE('',#611,#612,#655,.T.);
#513=EDGE_CURVE('',#612,#613,#113,.T.);
#514=EDGE_CURVE('',#613,#611,#114,.T.);
#515=EDGE_CURVE('',#614,#615,#656,.T.);
#516=EDGE_CURVE('',#615,#616,#115,.T.);
#517=EDGE_CURVE('',#616,#614,#116,.T.);
#518=EDGE_CURVE('',#617,#618,#117,.T.);
#519=EDGE_CURVE('',#618,#619,#118,.T.);
#520=EDGE_CURVE('',#619,#617,#657,.T.);
#521=EDGE_CURVE('',#620,#621,#658,.T.);
#522=EDGE_CURVE('',#621,#622,#119,.T.);
#523=EDGE_CURVE('',#622,#620,#120,.T.);
#524=EDGE_CURVE('',#623,#624,#659,.T.);
#525=EDGE_CURVE('',#624,#625,#121,.T.);
#526=EDGE_CURVE('',#625,#623,#122,.T.);
#527=EDGE_CURVE('',#626,#626,#660,.F.);
#528=EDGE_CURVE('',#603,#627,#123,.F.);
#529=EDGE_CURVE('',#604,#628,#124,.F.);
#530=EDGE_CURVE('',#628,#627,#661,.T.);
#531=EDGE_CURVE('',#627,#629,#125,.T.);
#532=EDGE_CURVE('',#628,#630,#126,.T.);
#533=EDGE_CURVE('',#629,#630,#662,.F.);
#534=EDGE_CURVE('',#629,#631,#127,.F.);
#535=EDGE_CURVE('',#630,#632,#128,.F.);
#536=EDGE_CURVE('',#632,#631,#663,.T.);
#537=EDGE_CURVE('',#633,#633,#664,.T.);
#538=EDGE_CURVE('',#564,#605,#19,.T.);
#539=EDGE_CURVE('',#563,#606,#20,.T.);
#540=EDGE_CURVE('',#573,#610,#129,.T.);
#541=EDGE_CURVE('',#608,#572,#21,.F.);
#542=EDGE_CURVE('',#609,#575,#22,.F.);
#543=EDGE_CURVE('',#597,#613,#130,.T.);
#544=EDGE_CURVE('',#611,#596,#23,.F.);
#545=EDGE_CURVE('',#612,#599,#24,.F.);
#546=EDGE_CURVE('',#591,#616,#131,.T.);
#547=EDGE_CURVE('',#614,#590,#25,.F.);
#548=EDGE_CURVE('',#615,#593,#26,.F.);
#549=EDGE_CURVE('',#618,#585,#132,.T.);
#550=EDGE_CURVE('',#587,#617,#27,.T.);
#551=EDGE_CURVE('',#584,#619,#28,.F.);
#552=EDGE_CURVE('',#579,#622,#133,.T.);
#553=EDGE_CURVE('',#620,#578,#29,.F.);
#554=EDGE_CURVE('',#621,#581,#30,.F.);
#555=EDGE_CURVE('',#567,#625,#134,.T.);
#556=EDGE_CURVE('',#623,#566,#31,.F.);
#557=EDGE_CURVE('',#624,#569,#32,.F.);
#558=EDGE_CURVE('',#631,#562,#135,.T.);
#559=EDGE_CURVE('',#632,#561,#136,.T.);
#560=VERTEX_POINT('',#1192);
#561=VERTEX_POINT('',#1194);
#562=VERTEX_POINT('',#1195);
#563=VERTEX_POINT('',#1197);
#564=VERTEX_POINT('',#1199);
#565=VERTEX_POINT('',#1203);
#566=VERTEX_POINT('',#1204);
#567=VERTEX_POINT('',#1206);
#568=VERTEX_POINT('',#1208);
#569=VERTEX_POINT('',#1212);
#570=VERTEX_POINT('',#1214);
#571=VERTEX_POINT('',#1218);
#572=VERTEX_POINT('',#1219);
#573=VERTEX_POINT('',#1221);
#574=VERTEX_POINT('',#1223);
#575=VERTEX_POINT('',#1227);
#576=VERTEX_POINT('',#1229);
#577=VERTEX_POINT('',#1233);
#578=VERTEX_POINT('',#1234);
#579=VERTEX_POINT('',#1236);
#580=VERTEX_POINT('',#1238);
#581=VERTEX_POINT('',#1242);
#582=VERTEX_POINT('',#1244);
#583=VERTEX_POINT('',#1248);
#584=VERTEX_POINT('',#1249);
#585=VERTEX_POINT('',#1251);
#586=VERTEX_POINT('',#1253);
#587=VERTEX_POINT('',#1257);
#588=VERTEX_POINT('',#1259);
#589=VERTEX_POINT('',#1263);
#590=VERTEX_POINT('',#1264);
#591=VERTEX_POINT('',#1266);
#592=VERTEX_POINT('',#1268);
#593=VERTEX_POINT('',#1272);
#594=VERTEX_POINT('',#1274);
#595=VERTEX_POINT('',#1278);
#596=VERTEX_POINT('',#1279);
#597=VERTEX_POINT('',#1281);
#598=VERTEX_POINT('',#1283);
#599=VERTEX_POINT('',#1287);
#600=VERTEX_POINT('',#1289);
#601=VERTEX_POINT('',#1293);
#602=VERTEX_POINT('',#1295);
#603=VERTEX_POINT('',#1316);
#604=VERTEX_POINT('',#1317);
#605=VERTEX_POINT('',#1319);
#606=VERTEX_POINT('',#1321);
#607=VERTEX_POINT('',#1325);
#608=VERTEX_POINT('',#1327);
#609=VERTEX_POINT('',#1328);
#610=VERTEX_POINT('',#1330);
#611=VERTEX_POINT('',#1333);
#612=VERTEX_POINT('',#1334);
#613=VERTEX_POINT('',#1336);
#614=VERTEX_POINT('',#1339);
#615=VERTEX_POINT('',#1340);
#616=VERTEX_POINT('',#1342);
#617=VERTEX_POINT('',#1345);
#618=VERTEX_POINT('',#1346);
#619=VERTEX_POINT('',#1348);
#620=VERTEX_POINT('',#1351);
#621=VERTEX_POINT('',#1352);
#622=VERTEX_POINT('',#1354);
#623=VERTEX_POINT('',#1357);
#624=VERTEX_POINT('',#1358);
#625=VERTEX_POINT('',#1360);
#626=VERTEX_POINT('',#1363);
#627=VERTEX_POINT('',#1366);
#628=VERTEX_POINT('',#1368);
#629=VERTEX_POINT('',#1372);
#630=VERTEX_POINT('',#1374);
#631=VERTEX_POINT('',#1378);
#632=VERTEX_POINT('',#1380);
#633=VERTEX_POINT('',#1383);
#634=CIRCLE('',#876,0.0450152307082018);
#635=CIRCLE('',#877,0.0450152307082018);
#636=CIRCLE('',#878,0.0450152307082018);
#637=CIRCLE('',#892,0.0046);
#638=CIRCLE('',#893,0.0046);
#639=CIRCLE('',#895,0.033);
#640=CIRCLE('',#896,0.033);
#641=CIRCLE('',#898,0.033);
#642=CIRCLE('',#899,0.033);
#643=CIRCLE('',#901,0.033);
#644=CIRCLE('',#902,0.033);
#645=CIRCLE('',#904,0.033);
#646=CIRCLE('',#905,0.033);
#647=CIRCLE('',#907,0.033);
#648=CIRCLE('',#908,0.033);
#649=CIRCLE('',#910,0.033);
#650=CIRCLE('',#911,0.033);
#651=CIRCLE('',#913,0.04);
#652=CIRCLE('',#914,0.0445978064031576);
#653=CIRCLE('',#916,0.0056);
#654=CIRCLE('',#917,0.034);
#655=CIRCLE('',#918,0.034);
#656=CIRCLE('',#919,0.034);
#657=CIRCLE('',#920,0.034);
#658=CIRCLE('',#921,0.034);
#659=CIRCLE('',#922,0.034);
#660=CIRCLE('',#923,0.0400152307082019);
#661=CIRCLE('',#925,0.04);
#662=CIRCLE('',#927,0.0425);
#663=CIRCLE('',#929,0.0425);
#664=CIRCLE('',#930,0.0425);
#665=EDGE_LOOP('',(#209));
#666=EDGE_LOOP('',(#210,#211,#212,#213));
#667=EDGE_LOOP('',(#214,#215,#216,#217));
#668=EDGE_LOOP('',(#218,#219,#220,#221));
#669=EDGE_LOOP('',(#222,#223,#224,#225));
#670=EDGE_LOOP('',(#226,#227,#228,#229));
#671=EDGE_LOOP('',(#230,#231,#232,#233));
#672=EDGE_LOOP('',(#234,#235,#236,#237));
#673=EDGE_LOOP('',(#238,#239,#240,#241));
#674=EDGE_LOOP('',(#242,#243,#244,#245));
#675=EDGE_LOOP('',(#246,#247,#248,#249));
#676=EDGE_LOOP('',(#250,#251,#252,#253));
#677=EDGE_LOOP('',(#254,#255,#256,#257));
#678=EDGE_LOOP('',(#258,#259,#260,#261));
#679=EDGE_LOOP('',(#262));
#680=EDGE_LOOP('',(#263));
#681=EDGE_LOOP('',(#264,#265,#266,#267));
#682=EDGE_LOOP('',(#268,#269,#270,#271));
#683=EDGE_LOOP('',(#272,#273,#274,#275));
#684=EDGE_LOOP('',(#276,#277,#278,#279));
#685=EDGE_LOOP('',(#280,#281,#282,#283));
#686=EDGE_LOOP('',(#284,#285,#286,#287));
#687=EDGE_LOOP('',(#288,#289,#290,#291));
#688=EDGE_LOOP('',(#292,#293,#294));
#689=EDGE_LOOP('',(#295,#296,#297));
#690=EDGE_LOOP('',(#298,#299,#300));
#691=EDGE_LOOP('',(#301,#302,#303));
#692=EDGE_LOOP('',(#304,#305,#306));
#693=EDGE_LOOP('',(#307,#308,#309));
#694=EDGE_LOOP('',(#310));
#695=EDGE_LOOP('',(#311));
#696=EDGE_LOOP('',(#312,#313,#314));
#697=EDGE_LOOP('',(#315,#316,#317));
#698=EDGE_LOOP('',(#318,#319,#320));
#699=EDGE_LOOP('',(#321,#322,#323));
#700=EDGE_LOOP('',(#324,#325,#326));
#701=EDGE_LOOP('',(#327,#328,#329));
#702=EDGE_LOOP('',(#330));
#703=EDGE_LOOP('',(#331,#332,#333,#334));
#704=EDGE_LOOP('',(#335,#336,#337,#338));
#705=EDGE_LOOP('',(#339,#340,#341,#342));
#706=EDGE_LOOP('',(#343));
#707=EDGE_LOOP('',(#344));
#708=EDGE_LOOP('',(#345));
#709=EDGE_LOOP('',(#346,#347,#348,#349));
#710=EDGE_LOOP('',(#350));
#711=EDGE_LOOP('',(#351));
#712=EDGE_LOOP('',(#352));
#713=EDGE_LOOP('',(#353,#354,#355,#356));
#714=EDGE_LOOP('',(#357,#358,#359,#360));
#715=EDGE_LOOP('',(#361,#362,#363,#364));
#716=EDGE_LOOP('',(#365,#366,#367,#368));
#717=EDGE_LOOP('',(#369,#370,#371,#372));
#718=EDGE_LOOP('',(#373,#374,#375,#376));
#719=EDGE_LOOP('',(#377,#378,#379,#380));
#720=EDGE_LOOP('',(#381,#382,#383,#384));
#721=EDGE_LOOP('',(#385,#386,#387,#388));
#722=EDGE_LOOP('',(#389,#390,#391,#392));
#723=EDGE_LOOP('',(#393,#394,#395,#396));
#724=EDGE_LOOP('',(#397,#398,#399,#400));
#725=EDGE_LOOP('',(#401,#402,#403,#404));
#726=EDGE_LOOP('',(#405,#406,#407,#408));
#727=EDGE_LOOP('',(#409,#410,#411,#412));
#728=EDGE_LOOP('',(#413,#414,#415,#416));
#729=EDGE_LOOP('',(#417,#418,#419,#420));
#730=EDGE_LOOP('',(#421,#422,#423,#424));
#731=EDGE_LOOP('',(#425,#426,#427,#428));
#732=EDGE_LOOP('',(#429,#430,#431,#432,#433,#434,#435));
#733=EDGE_LOOP('',(#436,#437,#438,#439,#440,#441,#442));
#734=FACE_BOUND('',#665,.T.);
#735=FACE_BOUND('',#666,.T.);
#736=FACE_BOUND('',#667,.T.);
#737=FACE_BOUND('',#668,.T.);
#738=FACE_BOUND('',#669,.T.);
#739=FACE_BOUND('',#670,.T.);
#740=FACE_BOUND('',#671,.T.);
#741=FACE_BOUND('',#672,.T.);
#742=FACE_BOUND('',#673,.T.);
#743=FACE_BOUND('',#674,.T.);
#744=FACE_BOUND('',#675,.T.);
#745=FACE_BOUND('',#676,.T.);
#746=FACE_BOUND('',#677,.T.);
#747=FACE_BOUND('',#678,.T.);
#748=FACE_BOUND('',#679,.T.);
#749=FACE_BOUND('',#680,.T.);
#750=FACE_BOUND('',#681,.T.);
#751=FACE_BOUND('',#682,.T.);
#752=FACE_BOUND('',#683,.T.);
#753=FACE_BOUND('',#684,.T.);
#754=FACE_BOUND('',#685,.T.);
#755=FACE_BOUND('',#686,.T.);
#756=FACE_BOUND('',#687,.T.);
#757=FACE_BOUND('',#688,.T.);
#758=FACE_BOUND('',#689,.T.);
#759=FACE_BOUND('',#690,.T.);
#760=FACE_BOUND('',#691,.T.);
#761=FACE_BOUND('',#692,.T.);
#762=FACE_BOUND('',#693,.T.);
#763=FACE_BOUND('',#694,.T.);
#764=FACE_BOUND('',#695,.T.);
#765=FACE_BOUND('',#696,.T.);
#766=FACE_BOUND('',#697,.T.);
#767=FACE_BOUND('',#698,.T.);
#768=FACE_BOUND('',#699,.T.);
#769=FACE_BOUND('',#700,.T.);
#770=FACE_BOUND('',#701,.T.);
#771=FACE_BOUND('',#702,.T.);
#772=FACE_BOUND('',#703,.T.);
#773=FACE_BOUND('',#704,.T.);
#774=FACE_BOUND('',#705,.T.);
#775=FACE_BOUND('',#706,.T.);
#776=FACE_BOUND('',#707,.T.);
#777=FACE_BOUND('',#708,.T.);
#778=FACE_BOUND('',#709,.T.);
#779=FACE_BOUND('',#710,.T.);
#780=FACE_BOUND('',#711,.T.);
#781=FACE_BOUND('',#712,.T.);
#782=FACE_BOUND('',#713,.T.);
#783=FACE_BOUND('',#714,.T.);
#784=FACE_BOUND('',#715,.T.);
#785=FACE_BOUND('',#716,.T.);
#786=FACE_BOUND('',#717,.T.);
#787=FACE_BOUND('',#718,.T.);
#788=FACE_BOUND('',#719,.T.);
#789=FACE_BOUND('',#720,.T.);
#790=FACE_BOUND('',#721,.T.);
#791=FACE_BOUND('',#722,.T.);
#792=FACE_BOUND('',#723,.T.);
#793=FACE_BOUND('',#724,.T.);
#794=FACE_BOUND('',#725,.T.);
#795=FACE_BOUND('',#726,.T.);
#796=FACE_BOUND('',#727,.T.);
#797=FACE_BOUND('',#728,.T.);
#798=FACE_BOUND('',#729,.T.);
#799=FACE_BOUND('',#730,.T.);
#800=FACE_BOUND('',#731,.T.);
#801=FACE_BOUND('',#732,.T.);
#802=FACE_BOUND('',#733,.T.);
#803=CYLINDRICAL_SURFACE('',#875,0.0450152307082018);
#804=CYLINDRICAL_SURFACE('',#891,0.0046);
#805=CYLINDRICAL_SURFACE('',#894,0.033);
#806=CYLINDRICAL_SURFACE('',#897,0.033);
#807=CYLINDRICAL_SURFACE('',#900,0.033);
#808=CYLINDRICAL_SURFACE('',#903,0.033);
#809=CYLINDRICAL_SURFACE('',#906,0.033);
#810=CYLINDRICAL_SURFACE('',#909,0.033);
#811=CYLINDRICAL_SURFACE('',#924,0.04);
#812=CYLINDRICAL_SURFACE('',#928,0.0425);
#813=ADVANCED_FACE('',(#734,#735),#803,.T.);
#814=ADVANCED_FACE('',(#736),#34,.T.);
#815=ADVANCED_FACE('',(#737),#35,.F.);
#816=ADVANCED_FACE('',(#738),#36,.T.);
#817=ADVANCED_FACE('',(#739),#37,.F.);
#818=ADVANCED_FACE('',(#740),#38,.T.);
#819=ADVANCED_FACE('',(#741),#39,.F.);
#820=ADVANCED_FACE('',(#742),#40,.T.);
#821=ADVANCED_FACE('',(#743),#41,.F.);
#822=ADVANCED_FACE('',(#744),#42,.T.);
#823=ADVANCED_FACE('',(#745),#43,.F.);
#824=ADVANCED_FACE('',(#746),#44,.T.);
#825=ADVANCED_FACE('',(#747),#45,.F.);
#826=ADVANCED_FACE('',(#748,#749),#804,.F.);
#827=ADVANCED_FACE('',(#750),#805,.F.);
#828=ADVANCED_FACE('',(#751),#806,.F.);
#829=ADVANCED_FACE('',(#752),#807,.F.);
#830=ADVANCED_FACE('',(#753),#808,.F.);
#831=ADVANCED_FACE('',(#754),#809,.F.);
#832=ADVANCED_FACE('',(#755),#810,.F.);
#833=ADVANCED_FACE('',(#756,#757,#758,#759,#760,#761,#762,#763),#46,.T.);
#834=ADVANCED_FACE('',(#764,#765,#766,#767,#768,#769,#770,#771),#47,.F.);
#835=ADVANCED_FACE('',(#772),#811,.F.);
#836=ADVANCED_FACE('',(#773),#48,.T.);
#837=ADVANCED_FACE('',(#774,#775),#812,.F.);
#838=ADVANCED_FACE('',(#776,#777),#49,.T.);
#839=ADVANCED_FACE('',(#778,#779),#33,.T.);
#840=ADVANCED_FACE('',(#780,#781),#12,.F.);
#841=ADVANCED_FACE('',(#782),#50,.T.);
#842=ADVANCED_FACE('',(#783),#13,.F.);
#843=ADVANCED_FACE('',(#784),#51,.F.);
#844=ADVANCED_FACE('',(#785),#52,.T.);
#845=ADVANCED_FACE('',(#786),#14,.F.);
#846=ADVANCED_FACE('',(#787),#53,.F.);
#847=ADVANCED_FACE('',(#788),#54,.T.);
#848=ADVANCED_FACE('',(#789),#15,.F.);
#849=ADVANCED_FACE('',(#790),#55,.F.);
#850=ADVANCED_FACE('',(#791),#56,.F.);
#851=ADVANCED_FACE('',(#792),#16,.F.);
#852=ADVANCED_FACE('',(#793),#57,.T.);
#853=ADVANCED_FACE('',(#794),#58,.T.);
#854=ADVANCED_FACE('',(#795),#17,.F.);
#855=ADVANCED_FACE('',(#796),#59,.F.);
#856=ADVANCED_FACE('',(#797),#60,.T.);
#857=ADVANCED_FACE('',(#798),#18,.F.);
#858=ADVANCED_FACE('',(#799),#61,.F.);
#859=ADVANCED_FACE('',(#800),#62,.T.);
#860=ADVANCED_FACE('',(#801),#63,.F.);
#861=ADVANCED_FACE('',(#802),#64,.T.);
#862=CLOSED_SHELL('',(#813,#814,#815,#816,#817,#818,#819,#820,#821,#822,
#823,#824,#825,#826,#827,#828,#829,#830,#831,#832,#833,#834,#835,#836,#837,
#838,#839,#840,#841,#842,#843,#844,#845,#846,#847,#848,#849,#850,#851,#852,
#853,#854,#855,#856,#857,#858,#859,#860,#861));
#863=STYLED_ITEM('',(#864),#871);
#864=PRESENTATION_STYLE_ASSIGNMENT((#865));
#865=SURFACE_STYLE_USAGE(.BOTH.,#866);
#866=SURFACE_SIDE_STYLE('',(#867));
#867=SURFACE_STYLE_FILL_AREA(#868);
#868=FILL_AREA_STYLE('',(#869));
#869=FILL_AREA_STYLE_COLOUR('',#870);
#870=COLOUR_RGB('',0.615686274509804,0.811764705882353,0.929411764705882);
#871=MANIFOLD_SOLID_BREP('Part 1',#862);
#872=SHAPE_DEFINITION_REPRESENTATION(#1478,#873);
#873=SHAPE_REPRESENTATION('Part 1',(#874),#1473);
#874=AXIS2_PLACEMENT_3D('',#1189,#955,#956);
#875=AXIS2_PLACEMENT_3D('',#1190,#957,#958);
#876=AXIS2_PLACEMENT_3D('',#1191,#959,#960);
#877=AXIS2_PLACEMENT_3D('',#1193,#961,#962);
#878=AXIS2_PLACEMENT_3D('',#1198,#964,#965);
#879=AXIS2_PLACEMENT_3D('',#1201,#967,#968);
#880=AXIS2_PLACEMENT_3D('',#1210,#973,#974);
#881=AXIS2_PLACEMENT_3D('',#1216,#978,#979);
#882=AXIS2_PLACEMENT_3D('',#1225,#984,#985);
#883=AXIS2_PLACEMENT_3D('',#1231,#989,#990);
#884=AXIS2_PLACEMENT_3D('',#1240,#995,#996);
#885=AXIS2_PLACEMENT_3D('',#1246,#1000,#1001);
#886=AXIS2_PLACEMENT_3D('',#1255,#1006,#1007);
#887=AXIS2_PLACEMENT_3D('',#1261,#1011,#1012);
#888=AXIS2_PLACEMENT_3D('',#1270,#1017,#1018);
#889=AXIS2_PLACEMENT_3D('',#1276,#1022,#1023);
#890=AXIS2_PLACEMENT_3D('',#1285,#1028,#1029);
#891=AXIS2_PLACEMENT_3D('',#1291,#1033,#1034);
#892=AXIS2_PLACEMENT_3D('',#1292,#1035,#1036);
#893=AXIS2_PLACEMENT_3D('',#1294,#1037,#1038);
#894=AXIS2_PLACEMENT_3D('',#1296,#1039,#1040);
#895=AXIS2_PLACEMENT_3D('',#1297,#1041,#1042);
#896=AXIS2_PLACEMENT_3D('',#1298,#1043,#1044);
#897=AXIS2_PLACEMENT_3D('',#1299,#1045,#1046);
#898=AXIS2_PLACEMENT_3D('',#1300,#1047,#1048);
#899=AXIS2_PLACEMENT_3D('',#1301,#1049,#1050);
#900=AXIS2_PLACEMENT_3D('',#1302,#1051,#1052);
#901=AXIS2_PLACEMENT_3D('',#1303,#1053,#1054);
#902=AXIS2_PLACEMENT_3D('',#1304,#1055,#1056);
#903=AXIS2_PLACEMENT_3D('',#1305,#1057,#1058);
#904=AXIS2_PLACEMENT_3D('',#1306,#1059,#1060);
#905=AXIS2_PLACEMENT_3D('',#1307,#1061,#1062);
#906=AXIS2_PLACEMENT_3D('',#1308,#1063,#1064);
#907=AXIS2_PLACEMENT_3D('',#1309,#1065,#1066);
#908=AXIS2_PLACEMENT_3D('',#1310,#1067,#1068);
#909=AXIS2_PLACEMENT_3D('',#1311,#1069,#1070);
#910=AXIS2_PLACEMENT_3D('',#1312,#1071,#1072);
#911=AXIS2_PLACEMENT_3D('',#1313,#1073,#1074);
#912=AXIS2_PLACEMENT_3D('',#1314,#1075,#1076);
#913=AXIS2_PLACEMENT_3D('',#1315,#1077,#1078);
#914=AXIS2_PLACEMENT_3D('',#1320,#1080,#1081);
#915=AXIS2_PLACEMENT_3D('',#1323,#1083,#1084);
#916=AXIS2_PLACEMENT_3D('',#1324,#1085,#1086);
#917=AXIS2_PLACEMENT_3D('',#1326,#1087,#1088);
#918=AXIS2_PLACEMENT_3D('',#1332,#1091,#1092);
#919=AXIS2_PLACEMENT_3D('',#1338,#1095,#1096);
#920=AXIS2_PLACEMENT_3D('',#1349,#1101,#1102);
#921=AXIS2_PLACEMENT_3D('',#1350,#1103,#1104);
#922=AXIS2_PLACEMENT_3D('',#1356,#1107,#1108);
#923=AXIS2_PLACEMENT_3D('',#1362,#1111,#1112);
#924=AXIS2_PLACEMENT_3D('',#1364,#1113,#1114);
#925=AXIS2_PLACEMENT_3D('',#1369,#1117,#1118);
#926=AXIS2_PLACEMENT_3D('',#1370,#1119,#1120);
#927=AXIS2_PLACEMENT_3D('',#1375,#1123,#1124);
#928=AXIS2_PLACEMENT_3D('',#1376,#1125,#1126);
#929=AXIS2_PLACEMENT_3D('',#1381,#1129,#1130);
#930=AXIS2_PLACEMENT_3D('',#1382,#1131,#1132);
#931=AXIS2_PLACEMENT_3D('',#1384,#1133,#1134);
#932=AXIS2_PLACEMENT_3D('',#1385,#1135,#1136);
#933=AXIS2_PLACEMENT_3D('',#1394,#1137,#1138);
#934=AXIS2_PLACEMENT_3D('',#1395,#1139,#1140);
#935=AXIS2_PLACEMENT_3D('',#1401,#1142,#1143);
#936=AXIS2_PLACEMENT_3D('',#1406,#1144,#1145);
#937=AXIS2_PLACEMENT_3D('',#1407,#1146,#1147);
#938=AXIS2_PLACEMENT_3D('',#1413,#1149,#1150);
#939=AXIS2_PLACEMENT_3D('',#1418,#1151,#1152);
#940=AXIS2_PLACEMENT_3D('',#1419,#1153,#1154);
#941=AXIS2_PLACEMENT_3D('',#1425,#1156,#1157);
#942=AXIS2_PLACEMENT_3D('',#1430,#1158,#1159);
#943=AXIS2_PLACEMENT_3D('',#1431,#1160,#1161);
#944=AXIS2_PLACEMENT_3D('',#1437,#1163,#1164);
#945=AXIS2_PLACEMENT_3D('',#1442,#1165,#1166);
#946=AXIS2_PLACEMENT_3D('',#1443,#1167,#1168);
#947=AXIS2_PLACEMENT_3D('',#1449,#1170,#1171);
#948=AXIS2_PLACEMENT_3D('',#1454,#1172,#1173);
#949=AXIS2_PLACEMENT_3D('',#1455,#1174,#1175);
#950=AXIS2_PLACEMENT_3D('',#1461,#1177,#1178);
#951=AXIS2_PLACEMENT_3D('',#1466,#1179,#1180);
#952=AXIS2_PLACEMENT_3D('',#1467,#1181,#1182);
#953=AXIS2_PLACEMENT_3D('',#1470,#1185,#1186);
#954=AXIS2_PLACEMENT_3D('',#1471,#1187,#1188);
#955=DIRECTION('',(0.,0.,1.));
#956=DIRECTION('',(1.,0.,0.));
#957=DIRECTION('',(0.,0.,-1.));
#958=DIRECTION('',(-1.,0.,0.));
#959=DIRECTION('',(0.,0.,1.));
#960=DIRECTION('',(1.,0.,0.));
#961=DIRECTION('',(0.,0.,-1.));
#962=DIRECTION('',(-1.,0.,0.));
#963=DIRECTION('',(0.,0.,-1.));
#964=DIRECTION('',(0.,0.,1.));
#965=DIRECTION('',(1.,0.,0.));
#966=DIRECTION('',(0.,0.,-1.));
#967=DIRECTION('',(0.5,0.866025403784438,0.));
#968=DIRECTION('',(-0.866025403784439,0.5,0.));
#969=DIRECTION('',(0.,0.,-1.));
#970=DIRECTION('',(-0.866025403784439,0.5,0.));
#971=DIRECTION('',(0.,0.,-1.));
#972=DIRECTION('',(0.866025403784438,-0.5,0.));
#973=DIRECTION('',(-0.5,0.866025403784439,0.));
#974=DIRECTION('',(-0.866025403784439,-0.5,0.));
#975=DIRECTION('',(0.866025403784439,0.5,0.));
#976=DIRECTION('',(0.,0.,-1.));
#977=DIRECTION('',(0.866025403784439,0.5,0.));
#978=DIRECTION('',(1.,-5.68083975089156E-16,0.));
#979=DIRECTION('',(5.68083975089156E-16,1.,0.));
#980=DIRECTION('',(0.,0.,-1.));
#981=DIRECTION('',(5.68083975089156E-16,1.,0.));
#982=DIRECTION('',(0.,0.,-1.));
#983=DIRECTION('',(-5.68083975089156E-16,-1.,0.));
#984=DIRECTION('',(0.5,0.866025403784439,0.));
#985=DIRECTION('',(-0.866025403784439,0.5,0.));
#986=DIRECTION('',(0.866025403784439,-0.5,0.));
#987=DIRECTION('',(0.,0.,-1.));
#988=DIRECTION('',(0.866025403784439,-0.5,0.));
#989=DIRECTION('',(-0.5,0.866025403784439,0.));
#990=DIRECTION('',(-0.866025403784439,-0.5,0.));
#991=DIRECTION('',(0.,0.,-1.));
#992=DIRECTION('',(-0.866025403784439,-0.5,0.));
#993=DIRECTION('',(0.,0.,-1.));
#994=DIRECTION('',(0.866025403784439,0.5,0.));
#995=DIRECTION('',(-1.,-4.97073478203011E-16,0.));
#996=DIRECTION('',(4.97073478203011E-16,-1.,0.));
#997=DIRECTION('',(-4.97073478203011E-16,1.,0.));
#998=DIRECTION('',(0.,0.,-1.));
#999=DIRECTION('',(-4.97073478203011E-16,1.,0.));
#1000=DIRECTION('',(-1.,2.13031490658433E-16,0.));
#1001=DIRECTION('',(-2.13031490658433E-16,-1.,0.));
#1002=DIRECTION('',(0.,0.,-1.));
#1003=DIRECTION('',(-2.13031490658433E-16,-1.,0.));
#1004=DIRECTION('',(0.,0.,-1.));
#1005=DIRECTION('',(2.13031490658433E-16,1.,0.));
#1006=DIRECTION('',(-0.5,-0.866025403784439,0.));
#1007=DIRECTION('',(0.866025403784439,-0.5,0.));
#1008=DIRECTION('',(-0.866025403784439,0.5,0.));
#1009=DIRECTION('',(0.,0.,-1.));
#1010=DIRECTION('',(-0.866025403784439,0.5,0.));
#1011=DIRECTION('',(-0.5,-0.866025403784438,0.));
#1012=DIRECTION('',(0.866025403784439,-0.5,0.));
#1013=DIRECTION('',(0.,0.,-1.));
#1014=DIRECTION('',(0.866025403784439,-0.5,0.));
#1015=DIRECTION('',(0.,0.,-1.));
#1016=DIRECTION('',(-0.866025403784439,0.5,0.));
#1017=DIRECTION('',(0.5,-0.866025403784438,0.));
#1018=DIRECTION('',(0.866025403784439,0.5,0.));
#1019=DIRECTION('',(-0.866025403784439,-0.5,0.));
#1020=DIRECTION('',(0.,0.,-1.));
#1021=DIRECTION('',(-0.866025403784439,-0.5,0.));
#1022=DIRECTION('',(0.5,-0.866025403784439,0.));
#1023=DIRECTION('',(0.866025403784439,0.5,0.));
#1024=DIRECTION('',(0.,0.,-1.));
#1025=DIRECTION('',(0.866025403784439,0.5,0.));
#1026=DIRECTION('',(0.,0.,-1.));
#1027=DIRECTION('',(-0.866025403784439,-0.5,0.));
#1028=DIRECTION('',(1.,1.42020993772289E-16,0.));
#1029=DIRECTION('',(-1.42020993772289E-16,1.,0.));
#1030=DIRECTION('',(1.42020993772289E-16,-1.,0.));
#1031=DIRECTION('',(0.,0.,-1.));
#1032=DIRECTION('',(1.42020993772289E-16,-1.,0.));
#1033=DIRECTION('',(0.,0.,-1.));
#1034=DIRECTION('',(-1.,0.,0.));
#1035=DIRECTION('',(0.,0.,1.));
#1036=DIRECTION('',(1.,0.,0.));
#1037=DIRECTION('',(0.,0.,1.));
#1038=DIRECTION('',(1.,0.,0.));
#1039=DIRECTION('',(0.,0.,-1.));
#1040=DIRECTION('',(-1.,0.,0.));
#1041=DIRECTION('',(0.,0.,1.));
#1042=DIRECTION('',(1.,0.,0.));
#1043=DIRECTION('',(0.,0.,1.));
#1044=DIRECTION('',(1.,0.,0.));
#1045=DIRECTION('',(0.,0.,-1.));
#1046=DIRECTION('',(-1.,0.,0.));
#1047=DIRECTION('',(0.,0.,1.));
#1048=DIRECTION('',(1.,0.,0.));
#1049=DIRECTION('',(0.,0.,1.));
#1050=DIRECTION('',(1.,0.,0.));
#1051=DIRECTION('',(0.,0.,-1.));
#1052=DIRECTION('',(-1.,0.,0.));
#1053=DIRECTION('',(0.,0.,1.));
#1054=DIRECTION('',(1.,0.,0.));
#1055=DIRECTION('',(0.,0.,1.));
#1056=DIRECTION('',(1.,0.,0.));
#1057=DIRECTION('',(0.,0.,-1.));
#1058=DIRECTION('',(-1.,0.,0.));
#1059=DIRECTION('',(0.,0.,1.));
#1060=DIRECTION('',(1.,0.,0.));
#1061=DIRECTION('',(0.,0.,1.));
#1062=DIRECTION('',(1.,0.,0.));
#1063=DIRECTION('',(0.,0.,-1.));
#1064=DIRECTION('',(-1.,0.,0.));
#1065=DIRECTION('',(0.,0.,1.));
#1066=DIRECTION('',(1.,0.,0.));
#1067=DIRECTION('',(0.,0.,1.));
#1068=DIRECTION('',(1.,0.,0.));
#1069=DIRECTION('',(0.,0.,-1.));
#1070=DIRECTION('',(-1.,0.,0.));
#1071=DIRECTION('',(0.,0.,1.));
#1072=DIRECTION('',(1.,0.,0.));
#1073=DIRECTION('',(0.,0.,1.));
#1074=DIRECTION('',(1.,0.,0.));
#1075=DIRECTION('',(0.,0.,1.));
#1076=DIRECTION('',(1.,0.,0.));
#1077=DIRECTION('',(0.,0.,1.));
#1078=DIRECTION('',(1.,0.,0.));
#1079=DIRECTION('',(0.,-1.,0.));
#1080=DIRECTION('',(0.,0.,-1.));
#1081=DIRECTION('',(-1.,0.,0.));
#1082=DIRECTION('',(0.,-1.,0.));
#1083=DIRECTION('',(0.,0.,1.));
#1084=DIRECTION('',(1.,0.,0.));
#1085=DIRECTION('',(0.,0.,1.));
#1086=DIRECTION('',(1.,0.,0.));
#1087=DIRECTION('',(0.,0.,1.));
#1088=DIRECTION('',(1.,0.,0.));
#1089=DIRECTION('',(-0.866025403784439,0.5,0.));
#1090=DIRECTION('',(-5.68083975089156E-16,-1.,0.));
#1091=DIRECTION('',(0.,0.,1.));
#1092=DIRECTION('',(1.,0.,0.));
#1093=DIRECTION('',(-1.42020993772289E-16,1.,0.));
#1094=DIRECTION('',(-0.866025403784439,-0.5,0.));
#1095=DIRECTION('',(0.,0.,1.));
#1096=DIRECTION('',(1.,0.,0.));
#1097=DIRECTION('',(0.866025403784439,0.5,0.));
#1098=DIRECTION('',(-0.866025403784439,0.5,0.));
#1099=DIRECTION('',(0.866025403784439,-0.5,0.));
#1100=DIRECTION('',(2.13031490658433E-16,1.,0.));
#1101=DIRECTION('',(0.,0.,1.));
#1102=DIRECTION('',(1.,0.,0.));
#1103=DIRECTION('',(0.,0.,1.));
#1104=DIRECTION('',(1.,0.,0.));
#1105=DIRECTION('',(4.97073478203011E-16,-1.,0.));
#1106=DIRECTION('',(0.866025403784439,0.5,0.));
#1107=DIRECTION('',(0.,0.,1.));
#1108=DIRECTION('',(1.,0.,0.));
#1109=DIRECTION('',(-0.866025403784439,-0.5,0.));
#1110=DIRECTION('',(0.866025403784438,-0.5,0.));
#1111=DIRECTION('',(0.,0.,1.));
#1112=DIRECTION('',(1.,0.,0.));
#1113=DIRECTION('',(0.,0.,-1.));
#1114=DIRECTION('',(-1.,0.,0.));
#1115=DIRECTION('',(0.,0.,-1.));
#1116=DIRECTION('',(0.,0.,-1.));
#1117=DIRECTION('',(0.,0.,1.));
#1118=DIRECTION('',(1.,0.,0.));
#1119=DIRECTION('',(0.,0.,1.));
#1120=DIRECTION('',(1.,0.,0.));
#1121=DIRECTION('',(0.,-1.,0.));
#1122=DIRECTION('',(0.,-1.,0.));
#1123=DIRECTION('',(0.,0.,1.));
#1124=DIRECTION('',(1.,0.,0.));
#1125=DIRECTION('',(0.,0.,-1.));
#1126=DIRECTION('',(-1.,0.,0.));
#1127=DIRECTION('',(0.,0.,-1.));
#1128=DIRECTION('',(0.,0.,-1.));
#1129=DIRECTION('',(0.,0.,-1.));
#1130=DIRECTION('',(-1.,0.,0.));
#1131=DIRECTION('',(0.,0.,1.));
#1132=DIRECTION('',(1.,0.,0.));
#1133=DIRECTION('',(0.,0.,1.));
#1134=DIRECTION('',(1.,0.,0.));
#1135=DIRECTION('',(0.,0.,1.));
#1136=DIRECTION('',(1.,0.,0.));
#1137=DIRECTION('',(0.,0.,-1.));
#1138=DIRECTION('',(-1.,0.,0.));
#1139=DIRECTION('',(0.707106781186547,-4.01696031068952E-16,-0.707106781186548));
#1140=DIRECTION('',(5.68083975089156E-16,1.,0.));
#1141=DIRECTION('',(-0.447213595499958,0.774596669241484,-0.447213595499958));
#1142=DIRECTION('',(0.,0.,-1.));
#1143=DIRECTION('',(-1.,0.,0.));
#1144=DIRECTION('',(0.353553390593273,0.612372435695794,0.707106781186548));
#1145=DIRECTION('',(0.866025403784439,-0.5,0.));
#1146=DIRECTION('',(0.353553390593274,-0.612372435695795,-0.707106781186548));
#1147=DIRECTION('',(0.866025403784439,0.5,0.));
#1148=DIRECTION('',(0.447213595499958,0.774596669241483,-0.447213595499958));
#1149=DIRECTION('',(0.,0.,-1.));
#1150=DIRECTION('',(-1.,0.,0.));
#1151=DIRECTION('',(0.707106781186548,1.00424007767238E-16,0.707106781186548));
#1152=DIRECTION('',(1.42020993772289E-16,-1.,0.));
#1153=DIRECTION('',(-0.353553390593274,-0.612372435695794,-0.707106781186548));
#1154=DIRECTION('',(0.866025403784439,-0.5,0.));
#1155=DIRECTION('',(0.894427190999916,0.,-0.447213595499958));
#1156=DIRECTION('',(0.,0.,-1.));
#1157=DIRECTION('',(-1.,0.,0.));
#1158=DIRECTION('',(0.353553390593274,-0.612372435695794,0.707106781186548));
#1159=DIRECTION('',(-0.866025403784439,-0.5,0.));
#1160=DIRECTION('',(-0.353553390593273,-0.612372435695794,0.707106781186548));
#1161=DIRECTION('',(-0.866025403784439,0.5,0.));
#1162=DIRECTION('',(-0.447213595499958,0.774596669241484,0.447213595499958));
#1163=DIRECTION('',(0.,0.,-1.));
#1164=DIRECTION('',(-1.,0.,0.));
#1165=DIRECTION('',(-0.707106781186547,1.50636011650857E-16,-0.707106781186548));
#1166=DIRECTION('',(-2.13031490658433E-16,-1.,0.));
#1167=DIRECTION('',(-0.353553390593273,0.612372435695795,-0.707106781186548));
#1168=DIRECTION('',(-0.866025403784439,-0.5,0.));
#1169=DIRECTION('',(-0.447213595499958,-0.774596669241483,-0.447213595499958));
#1170=DIRECTION('',(0.,0.,-1.));
#1171=DIRECTION('',(-1.,0.,0.));
#1172=DIRECTION('',(-0.707106781186547,-3.51484027185333E-16,0.707106781186548));
#1173=DIRECTION('',(-4.97073478203011E-16,1.,0.));
#1174=DIRECTION('',(0.353553390593274,0.612372435695794,-0.707106781186548));
#1175=DIRECTION('',(-0.866025403784439,0.5,0.));
#1176=DIRECTION('',(-0.894427190999916,3.94879193809159E-16,-0.447213595499958));
#1177=DIRECTION('',(0.,0.,-1.));
#1178=DIRECTION('',(-1.,0.,0.));
#1179=DIRECTION('',(-0.353553390593274,0.612372435695794,0.707106781186548));
#1180=DIRECTION('',(0.866025403784439,0.5,0.));
#1181=DIRECTION('',(0.,0.,-1.));
#1182=DIRECTION('',(-1.,0.,0.));
#1183=DIRECTION('',(0.,-1.,0.));
#1184=DIRECTION('',(0.,-1.,0.));
#1185=DIRECTION('',(-1.,0.,0.));
#1186=DIRECTION('',(0.,0.,1.));
#1187=DIRECTION('',(-1.,0.,0.));
#1188=DIRECTION('',(0.,0.,1.));
#1189=CARTESIAN_POINT('',(0.,0.,0.));
#1190=CARTESIAN_POINT('',(0.,2.75638790998395E-18,0.003));
#1191=CARTESIAN_POINT('',(0.,2.75638790998395E-18,0.008));
#1192=CARTESIAN_POINT('',(0.0450152307082018,2.75638790998395E-18,0.008));
#1193=CARTESIAN_POINT('',(0.,2.75638790998395E-18,0.0058682862892518));
#1194=CARTESIAN_POINT('',(0.0041638922350479,-0.044822237752789,0.0058682862892518));
#1195=CARTESIAN_POINT('',(-0.0041638922350479,-0.044822237752789,0.0058682862892518));
#1196=CARTESIAN_POINT('',(0.0041638922350479,-0.044822237752789,0.003));
#1197=CARTESIAN_POINT('',(0.0041638922350479,-0.044822237752789,0.005));
#1198=CARTESIAN_POINT('',(0.,2.75638790998395E-18,0.005));
#1199=CARTESIAN_POINT('',(-0.0041638922350479,-0.044822237752789,0.005));
#1200=CARTESIAN_POINT('',(-0.0041638922350479,-0.044822237752789,0.003));
#1201=CARTESIAN_POINT('',(0.0200781163674007,-0.00610727833223798,0.003));
#1202=CARTESIAN_POINT('',(0.0306562327348014,-0.0122145566644759,0.003));
#1203=CARTESIAN_POINT('',(0.0306562327348014,-0.0122145566644759,0.003));
#1204=CARTESIAN_POINT('',(0.0306562327348014,-0.0122145566644759,0.001));
#1205=CARTESIAN_POINT('',(0.0095,-3.57129038019946E-18,0.001));
#1206=CARTESIAN_POINT('',(0.0095,0.,0.001));
#1207=CARTESIAN_POINT('',(0.0095,0.,0.003));
#1208=CARTESIAN_POINT('',(0.0095,0.,0.003));
#1209=CARTESIAN_POINT('',(0.0200781163674007,-0.00610727833223798,0.003));
#1210=CARTESIAN_POINT('',(0.0200781163674007,0.00610727833223796,0.003));
#1211=CARTESIAN_POINT('',(0.0200781163674007,0.00610727833223796,0.001));
#1212=CARTESIAN_POINT('',(0.0306562327348014,0.0122145566644759,0.001));
#1213=CARTESIAN_POINT('',(0.0306562327348014,0.0122145566644759,0.003));
#1214=CARTESIAN_POINT('',(0.0306562327348014,0.0122145566644759,0.003));
#1215=CARTESIAN_POINT('',(0.0200781163674007,0.00610727833223796,0.003));
#1216=CARTESIAN_POINT('',(0.00475,-0.0204417980004281,0.003));
#1217=CARTESIAN_POINT('',(0.00475,-0.032656354664904,0.003));
#1218=CARTESIAN_POINT('',(0.00475,-0.032656354664904,0.003));
#1219=CARTESIAN_POINT('',(0.00475,-0.032656354664904,0.001));
#1220=CARTESIAN_POINT('',(0.00475,-0.00822724133595217,0.001));
#1221=CARTESIAN_POINT('',(0.00475,-0.00822724133595217,0.001));
#1222=CARTESIAN_POINT('',(0.00475,-0.00822724133595217,0.003));
#1223=CARTESIAN_POINT('',(0.00475,-0.00822724133595217,0.003));
#1224=CARTESIAN_POINT('',(0.00475,-0.0204417980004281,0.003));
#1225=CARTESIAN_POINT('',(0.0153281163674007,-0.0143345196681901,0.003));
#1226=CARTESIAN_POINT('',(0.0153281163674007,-0.0143345196681901,0.001));
#1227=CARTESIAN_POINT('',(0.0259062327348014,-0.0204417980004281,0.001));
#1228=CARTESIAN_POINT('',(0.0259062327348014,-0.0204417980004281,0.003));
#1229=CARTESIAN_POINT('',(0.0259062327348014,-0.0204417980004281,0.003));
#1230=CARTESIAN_POINT('',(0.0153281163674007,-0.0143345196681901,0.003));
#1231=CARTESIAN_POINT('',(0.0153281163674007,0.0143345196681901,0.003));
#1232=CARTESIAN_POINT('',(0.0259062327348014,0.0204417980004281,0.003));
#1233=CARTESIAN_POINT('',(0.0259062327348014,0.0204417980004281,0.003));
#1234=CARTESIAN_POINT('',(0.0259062327348014,0.0204417980004281,0.001));
#1235=CARTESIAN_POINT('',(0.00475,0.00822724133595216,0.001));
#1236=CARTESIAN_POINT('',(0.00475,0.00822724133595217,0.001));
#1237=CARTESIAN_POINT('',(0.00475,0.00822724133595217,0.003));
#1238=CARTESIAN_POINT('',(0.00475,0.00822724133595217,0.003));
#1239=CARTESIAN_POINT('',(0.0153281163674007,0.0143345196681901,0.003));
#1240=CARTESIAN_POINT('',(0.00475,0.0204417980004281,0.003));
#1241=CARTESIAN_POINT('',(0.00475,0.0204417980004281,0.001));
#1242=CARTESIAN_POINT('',(0.00475,0.032656354664904,0.001));
#1243=CARTESIAN_POINT('',(0.00475,0.032656354664904,0.003));
#1244=CARTESIAN_POINT('',(0.00475,0.032656354664904,0.003));
#1245=CARTESIAN_POINT('',(0.00475,0.0204417980004281,0.003));
#1246=CARTESIAN_POINT('',(-0.00475,0.0204417980004281,0.003));
#1247=CARTESIAN_POINT('',(-0.00475,0.032656354664904,0.003));
#1248=CARTESIAN_POINT('',(-0.00475,0.032656354664904,0.003));
#1249=CARTESIAN_POINT('',(-0.00475,0.032656354664904,0.001));
#1250=CARTESIAN_POINT('',(-0.00475,0.00822724133595217,0.001));
#1251=CARTESIAN_POINT('',(-0.00475,0.00822724133595217,0.001));
#1252=CARTESIAN_POINT('',(-0.00475,0.00822724133595217,0.003));
#1253=CARTESIAN_POINT('',(-0.00475,0.00822724133595217,0.003));
#1254=CARTESIAN_POINT('',(-0.00475,0.0204417980004281,0.003));
#1255=CARTESIAN_POINT('',(-0.0153281163674007,0.0143345196681901,0.003));
#1256=CARTESIAN_POINT('',(-0.0153281163674007,0.0143345196681901,0.001));
#1257=CARTESIAN_POINT('',(-0.0259062327348013,0.0204417980004281,0.001));
#1258=CARTESIAN_POINT('',(-0.0259062327348013,0.0204417980004281,0.003));
#1259=CARTESIAN_POINT('',(-0.0259062327348013,0.0204417980004281,0.003));
#1260=CARTESIAN_POINT('',(-0.0153281163674007,0.0143345196681901,0.003));
#1261=CARTESIAN_POINT('',(-0.0200781163674007,0.00610727833223798,0.003));
#1262=CARTESIAN_POINT('',(-0.0306562327348014,0.012214556664476,0.003));
#1263=CARTESIAN_POINT('',(-0.0306562327348014,0.012214556664476,0.003));
#1264=CARTESIAN_POINT('',(-0.0306562327348014,0.012214556664476,0.001));
#1265=CARTESIAN_POINT('',(-0.0095,2.93513008708213E-18,0.001));
#1266=CARTESIAN_POINT('',(-0.0095,1.16341445918999E-18,0.001));
#1267=CARTESIAN_POINT('',(-0.0095,1.16341445918999E-18,0.003));
#1268=CARTESIAN_POINT('',(-0.0095,1.16341445918999E-18,0.003));
#1269=CARTESIAN_POINT('',(-0.0200781163674007,0.00610727833223798,0.003));
#1270=CARTESIAN_POINT('',(-0.0200781163674007,-0.00610727833223797,0.003));
#1271=CARTESIAN_POINT('',(-0.0200781163674007,-0.00610727833223797,0.001));
#1272=CARTESIAN_POINT('',(-0.0306562327348014,-0.0122145566644759,0.001));
#1273=CARTESIAN_POINT('',(-0.0306562327348014,-0.0122145566644759,0.003));
#1274=CARTESIAN_POINT('',(-0.0306562327348014,-0.0122145566644759,0.003));
#1275=CARTESIAN_POINT('',(-0.0200781163674007,-0.00610727833223797,0.003));
#1276=CARTESIAN_POINT('',(-0.0153281163674007,-0.0143345196681901,0.003));
#1277=CARTESIAN_POINT('',(-0.0259062327348013,-0.0204417980004281,0.003));
#1278=CARTESIAN_POINT('',(-0.0259062327348013,-0.0204417980004281,0.003));
#1279=CARTESIAN_POINT('',(-0.0259062327348013,-0.0204417980004281,0.001));
#1280=CARTESIAN_POINT('',(-0.00475,-0.00822724133595217,0.001));
#1281=CARTESIAN_POINT('',(-0.00475,-0.00822724133595217,0.001));
#1282=CARTESIAN_POINT('',(-0.00475,-0.00822724133595217,0.003));
#1283=CARTESIAN_POINT('',(-0.00475,-0.00822724133595217,0.003));
#1284=CARTESIAN_POINT('',(-0.0153281163674007,-0.0143345196681901,0.003));
#1285=CARTESIAN_POINT('',(-0.00475,-0.0204417980004281,0.003));
#1286=CARTESIAN_POINT('',(-0.00475,-0.0204417980004281,0.001));
#1287=CARTESIAN_POINT('',(-0.00475,-0.032656354664904,0.001));
#1288=CARTESIAN_POINT('',(-0.00475,-0.032656354664904,0.003));
#1289=CARTESIAN_POINT('',(-0.00475,-0.032656354664904,0.003));
#1290=CARTESIAN_POINT('',(-0.00475,-0.0204417980004281,0.003));
#1291=CARTESIAN_POINT('',(0.,2.81668763803891E-19,0.003));
#1292=CARTESIAN_POINT('',(0.,2.81668763803891E-19,0.001));
#1293=CARTESIAN_POINT('',(0.0046,2.81668763803891E-19,0.001));
#1294=CARTESIAN_POINT('',(0.,2.81668763803891E-19,0.003));
#1295=CARTESIAN_POINT('',(0.0046,2.81668763803891E-19,0.003));
#1296=CARTESIAN_POINT('',(-8.15320033709099E-17,-8.67361737988404E-19,0.003));
#1297=CARTESIAN_POINT('',(-8.15320033709099E-17,-8.67361737988404E-19,0.001));
#1298=CARTESIAN_POINT('',(-8.15320033709099E-17,-8.67361737988404E-19,0.003));
#1299=CARTESIAN_POINT('',(-4.33680868994202E-18,2.94902990916057E-17,0.003));
#1300=CARTESIAN_POINT('',(-4.33680868994202E-18,2.94902990916057E-17,0.001));
#1301=CARTESIAN_POINT('',(-4.33680868994202E-18,2.94902990916057E-17,0.003));
#1302=CARTESIAN_POINT('',(-1.95156391047391E-17,-3.46944695195361E-17,0.003));
#1303=CARTESIAN_POINT('',(-1.95156391047391E-17,-3.46944695195361E-17,0.001));
#1304=CARTESIAN_POINT('',(-1.95156391047391E-17,-3.46944695195361E-17,0.003));
#1305=CARTESIAN_POINT('',(1.86482773667507E-17,-3.12250225675825E-17,0.003));
#1306=CARTESIAN_POINT('',(1.86482773667507E-17,-3.12250225675825E-17,0.001));
#1307=CARTESIAN_POINT('',(1.86482773667507E-17,-3.12250225675825E-17,0.003));
#1308=CARTESIAN_POINT('',(2.60208521396521E-17,1.99493199737333E-17,0.003));
#1309=CARTESIAN_POINT('',(2.60208521396521E-17,1.99493199737333E-17,0.001));
#1310=CARTESIAN_POINT('',(2.60208521396521E-17,1.99493199737333E-17,0.003));
#1311=CARTESIAN_POINT('',(-9.54097911787244E-18,8.67361737988404E-18,0.003));
#1312=CARTESIAN_POINT('',(-9.54097911787244E-18,8.67361737988404E-18,0.001));
#1313=CARTESIAN_POINT('',(-9.54097911787244E-18,8.67361737988404E-18,0.003));
#1314=CARTESIAN_POINT('',(0.,0.,0.003));
#1315=CARTESIAN_POINT('',(0.,2.4492935982947E-18,0.003));
#1316=CARTESIAN_POINT('',(-0.0041638922350479,-0.0397826846939081,0.003));
#1317=CARTESIAN_POINT('',(0.0041638922350479,-0.0397826846939081,0.003));
#1318=CARTESIAN_POINT('',(-0.0041638922350479,-0.0392652307082018,0.003));
#1319=CARTESIAN_POINT('',(-0.0041638922350479,-0.0444029991940684,0.003));
#1320=CARTESIAN_POINT('',(0.,2.75638790998395E-18,0.003));
#1321=CARTESIAN_POINT('',(0.0041638922350479,-0.0444029991940676,0.00299999999999822));
#1322=CARTESIAN_POINT('',(0.0041638922350479,-0.0392652307082018,0.003));
#1323=CARTESIAN_POINT('',(0.,0.,0.));
#1324=CARTESIAN_POINT('',(0.,2.81668763803891E-19,0.));
#1325=CARTESIAN_POINT('',(0.0056,2.81668763803891E-19,0.));
#1326=CARTESIAN_POINT('',(-4.33680868994202E-18,2.94902990916057E-17,0.));
#1327=CARTESIAN_POINT('',(0.00375,-0.0337925657504724,0.));
#1328=CARTESIAN_POINT('',(0.0273902203989651,-0.0201438781394279,0.));
#1329=CARTESIAN_POINT('',(-0.001875,-0.00324759526419164,0.));
#1330=CARTESIAN_POINT('',(0.00375,-0.00649519052838329,0.));
#1331=CARTESIAN_POINT('',(0.00375,-0.032656354664904,0.));
#1332=CARTESIAN_POINT('',(-9.54097911787244E-18,8.67361737988404E-18,0.));
#1333=CARTESIAN_POINT('',(-0.0273902203989651,-0.0201438781394279,0.));
#1334=CARTESIAN_POINT('',(-0.00375,-0.0337925657504724,0.));
#1335=CARTESIAN_POINT('',(-0.00375,-5.32578726646084E-19,0.));
#1336=CARTESIAN_POINT('',(-0.00375,-0.00649519052838329,0.));
#1337=CARTESIAN_POINT('',(-0.0264062327348013,-0.0195757725966436,0.));
#1338=CARTESIAN_POINT('',(2.60208521396521E-17,1.99493199737333E-17,0.));
#1339=CARTESIAN_POINT('',(-0.0311402203989651,0.0136486876110446,0.));
#1340=CARTESIAN_POINT('',(-0.0311402203989651,-0.0136486876110446,0.));
#1341=CARTESIAN_POINT('',(-0.001875,0.00324759526419165,0.));
#1342=CARTESIAN_POINT('',(-0.0075,3.60467568213787E-18,0.));
#1343=CARTESIAN_POINT('',(-0.0301562327348013,0.0130805820682604,0.));
#1344=CARTESIAN_POINT('',(0.001875,0.00324759526419164,0.));
#1345=CARTESIAN_POINT('',(-0.0273902203989651,0.0201438781394279,0.));
#1346=CARTESIAN_POINT('',(-0.00375,0.00649519052838329,0.));
#1347=CARTESIAN_POINT('',(-0.00375,0.032656354664904,0.));
#1348=CARTESIAN_POINT('',(-0.00375,0.0337925657504724,0.));
#1349=CARTESIAN_POINT('',(1.86482773667507E-17,-3.12250225675825E-17,0.));
#1350=CARTESIAN_POINT('',(-1.95156391047391E-17,-3.46944695195361E-17,0.));
#1351=CARTESIAN_POINT('',(0.0273902203989651,0.0201438781394279,0.));
#1352=CARTESIAN_POINT('',(0.00375,0.0337925657504724,0.));
#1353=CARTESIAN_POINT('',(0.00375,1.8640255432613E-18,0.));
#1354=CARTESIAN_POINT('',(0.00375,0.00649519052838329,0.));
#1355=CARTESIAN_POINT('',(0.0264062327348014,0.0195757725966436,0.));
#1356=CARTESIAN_POINT('',(-8.15320033709099E-17,-8.67361737988404E-19,0.));
#1357=CARTESIAN_POINT('',(0.0311402203989651,-0.0136486876110446,0.));
#1358=CARTESIAN_POINT('',(0.0311402203989651,0.0136486876110445,0.));
#1359=CARTESIAN_POINT('',(0.001875,-0.00324759526419164,0.));
#1360=CARTESIAN_POINT('',(0.0075,-1.21175943364636E-18,0.));
#1361=CARTESIAN_POINT('',(0.0301562327348013,-0.0130805820682604,0.));
#1362=CARTESIAN_POINT('',(0.,2.75638790998395E-18,0.));
#1363=CARTESIAN_POINT('',(0.0400152307082019,2.75638790998395E-18,0.));
#1364=CARTESIAN_POINT('',(0.,2.4492935982947E-18,0.005));
#1365=CARTESIAN_POINT('',(-0.0041638922350479,-0.0397826846939081,0.005));
#1366=CARTESIAN_POINT('',(-0.0041638922350479,-0.0397826846939081,0.005));
#1367=CARTESIAN_POINT('',(0.0041638922350479,-0.0397826846939081,0.005));
#1368=CARTESIAN_POINT('',(0.0041638922350479,-0.0397826846939081,0.005));
#1369=CARTESIAN_POINT('',(0.,2.4492935982947E-18,0.005));
#1370=CARTESIAN_POINT('',(0.,0.,0.005));
#1371=CARTESIAN_POINT('',(-0.0041638922350479,0.,0.005));
#1372=CARTESIAN_POINT('',(-0.0041638922350479,-0.0422955316960894,0.005));
#1373=CARTESIAN_POINT('',(0.0041638922350479,0.,0.005));
#1374=CARTESIAN_POINT('',(0.0041638922350479,-0.0422955316960894,0.005));
#1375=CARTESIAN_POINT('',(0.,2.60237444818812E-18,0.005));
#1376=CARTESIAN_POINT('',(0.,2.60237444818812E-18,0.008));
#1377=CARTESIAN_POINT('',(-0.0041638922350479,-0.0422955316960894,0.008));
#1378=CARTESIAN_POINT('',(-0.0041638922350479,-0.0422955316960894,0.0058682862892518));
#1379=CARTESIAN_POINT('',(0.0041638922350479,-0.0422955316960894,0.008));
#1380=CARTESIAN_POINT('',(0.0041638922350479,-0.0422955316960894,0.0058682862892518));
#1381=CARTESIAN_POINT('',(0.,2.60237444818812E-18,0.0058682862892518));
#1382=CARTESIAN_POINT('',(0.,2.60237444818812E-18,0.008));
#1383=CARTESIAN_POINT('',(0.0425,2.60237444818812E-18,0.008));
#1384=CARTESIAN_POINT('',(0.,0.,0.008));
#1385=CARTESIAN_POINT('',(0.,2.75638790998395E-18,0.005));
#1386=CARTESIAN_POINT('',(-0.0041638922350479,-0.044822237752789,0.005));
#1387=CARTESIAN_POINT('',(-0.0041638922350479,-0.044822237752789,0.00431072740294341));
#1388=CARTESIAN_POINT('',(-0.0041638922350479,-0.0446763730498541,0.0036236421175804));
#1389=CARTESIAN_POINT('',(-0.0041638922350479,-0.0444029991940684,0.00299999999999999));
#1390=CARTESIAN_POINT('',(0.0041638922350479,-0.044822237752789,0.005));
#1391=CARTESIAN_POINT('',(0.0041638922350479,-0.044822237752789,0.00431072740294276));
#1392=CARTESIAN_POINT('',(0.0041638922350479,-0.0446763730498538,0.0036236421175791));
#1393=CARTESIAN_POINT('',(0.0041638922350479,-0.0444029991940676,0.00299999999999821));
#1394=CARTESIAN_POINT('',(0.,2.81668763803891E-19,0.));
#1395=CARTESIAN_POINT('',(0.00375,-2.13031490658433E-18,0.));
#1396=CARTESIAN_POINT('',(0.00898124654696026,-0.0155559753346377,0.00523124654696027));
#1397=CARTESIAN_POINT('',(0.00475,-0.032656354664904,0.001));
#1398=CARTESIAN_POINT('',(0.00441892599724398,-0.0330390686491281,0.000668925997243978));
#1399=CARTESIAN_POINT('',(0.00408554619135754,-0.0334177238749759,0.00033554619135754));
#1400=CARTESIAN_POINT('',(0.00375,-0.0337925657504724,2.81127107417011E-18));
#1401=CARTESIAN_POINT('',(-4.33680868994202E-18,2.94902990916057E-17,0.));
#1402=CARTESIAN_POINT('',(0.0259062327348014,-0.0204417980004281,0.001));
#1403=CARTESIAN_POINT('',(0.026403209768901,-0.0203464364956208,0.000668925997243983));
#1404=CARTESIAN_POINT('',(0.0268978247167041,-0.0202470487275383,0.000335546191357537));
#1405=CARTESIAN_POINT('',(0.0273902203989651,-0.0201438781394279,5.70139657820126E-18));
#1406=CARTESIAN_POINT('',(0.0153281163674007,-0.0143345196681901,0.001));
#1407=CARTESIAN_POINT('',(0.001875,-0.00324759526419165,0.));
#1408=CARTESIAN_POINT('',(-0.00898124654696027,-0.0155559753346377,0.00523124654696027));
#1409=CARTESIAN_POINT('',(-0.0259062327348014,-0.0204417980004281,0.001));
#1410=CARTESIAN_POINT('',(-0.026403209768901,-0.0203464364956208,0.000668925997243976));
#1411=CARTESIAN_POINT('',(-0.0268978247167041,-0.0202470487275383,0.000335546191357539));
#1412=CARTESIAN_POINT('',(-0.0273902203989651,-0.0201438781394279,-5.09743822781815E-19));
#1413=CARTESIAN_POINT('',(-9.54097911787244E-18,8.67361737988404E-18,0.));
#1414=CARTESIAN_POINT('',(-0.00475,-0.032656354664904,0.001));
#1415=CARTESIAN_POINT('',(-0.00441892599724398,-0.0330390686491281,0.000668925997243977));
#1416=CARTESIAN_POINT('',(-0.00408554619135754,-0.0334177238749759,0.000335546191357535));
#1417=CARTESIAN_POINT('',(-0.00375,-0.0337925657504724,-2.7725207643993E-18));
#1418=CARTESIAN_POINT('',(-0.00475,-0.0204417980004281,0.001));
#1419=CARTESIAN_POINT('',(-0.001875,-0.00324759526419164,0.));
#1420=CARTESIAN_POINT('',(-0.0179624930939206,2.60208521396521E-18,0.00523124654696027));
#1421=CARTESIAN_POINT('',(-0.0306562327348014,0.012214556664476,0.001));
#1422=CARTESIAN_POINT('',(-0.0308221357661449,0.0126926321535073,0.000668925997243976));
#1423=CARTESIAN_POINT('',(-0.0309833709080616,0.0131706751474376,0.000335546191357537));
#1424=CARTESIAN_POINT('',(-0.0311402203989651,0.0136486876110446,-1.52727048160702E-18));
#1425=CARTESIAN_POINT('',(2.60208521396521E-17,1.99493199737333E-17,0.));
#1426=CARTESIAN_POINT('',(-0.0306562327348014,-0.0122145566644759,0.001));
#1427=CARTESIAN_POINT('',(-0.0308221357661449,-0.0126926321535073,0.000668925997243976));
#1428=CARTESIAN_POINT('',(-0.0309833709080616,-0.0131706751474375,0.000335546191357542));
#1429=CARTESIAN_POINT('',(-0.0311402203989651,-0.0136486876110446,2.84617744978499E-18));
#1430=CARTESIAN_POINT('',(-0.0200781163674007,-0.00610727833223797,0.001));
#1431=CARTESIAN_POINT('',(-0.0153281163674007,0.0143345196681901,0.001));
#1432=CARTESIAN_POINT('',(-0.0015,0.00259807621135331,-0.00225));
#1433=CARTESIAN_POINT('',(-0.0259062327348013,0.0204417980004281,0.001));
#1434=CARTESIAN_POINT('',(-0.026403209768901,0.0203464364956208,0.000668925997243976));
#1435=CARTESIAN_POINT('',(-0.0268978247167041,0.0202470487275383,0.000335546191357541));
#1436=CARTESIAN_POINT('',(-0.0273902203989651,0.0201438781394279,2.51167690625379E-18));
#1437=CARTESIAN_POINT('',(1.86482773667507E-17,-3.12250225675825E-17,0.));
#1438=CARTESIAN_POINT('',(-0.00375,0.0337925657504724,0.));
#1439=CARTESIAN_POINT('',(-0.00408554619135754,0.0334177238749759,0.000335546191357537));
#1440=CARTESIAN_POINT('',(-0.00441892599724398,0.0330390686491281,0.000668925997243978));
#1441=CARTESIAN_POINT('',(-0.00475,0.032656354664904,0.001));
#1442=CARTESIAN_POINT('',(-0.00375,7.98868089969124E-19,0.));
#1443=CARTESIAN_POINT('',(-0.001875,0.00324759526419164,0.));
#1444=CARTESIAN_POINT('',(0.00898124654696027,0.0155559753346377,0.00523124654696027));
#1445=CARTESIAN_POINT('',(0.0259062327348014,0.0204417980004281,0.001));
#1446=CARTESIAN_POINT('',(0.026403209768901,0.0203464364956208,0.000668925997243983));
#1447=CARTESIAN_POINT('',(0.0268978247167041,0.0202470487275383,0.000335546191357532));
#1448=CARTESIAN_POINT('',(0.0273902203989651,0.0201438781394279,5.64747533655652E-19));
#1449=CARTESIAN_POINT('',(-1.95156391047391E-17,-3.46944695195361E-17,0.));
#1450=CARTESIAN_POINT('',(0.00475,0.0326563546649041,0.001));
#1451=CARTESIAN_POINT('',(0.00441892599724398,0.0330390686491281,0.000668925997243978));
#1452=CARTESIAN_POINT('',(0.00408554619135754,0.0334177238749759,0.000335546191357535));
#1453=CARTESIAN_POINT('',(0.00375,0.0337925657504724,-2.03867052677033E-18));
#1454=CARTESIAN_POINT('',(0.00475,0.0204417980004281,0.001));
#1455=CARTESIAN_POINT('',(0.001875,0.00324759526419164,0.));
#1456=CARTESIAN_POINT('',(0.0179624930939206,-8.67361737988404E-18,0.00523124654696027));
#1457=CARTESIAN_POINT('',(0.0306562327348014,-0.0122145566644759,0.001));
#1458=CARTESIAN_POINT('',(0.030822135766145,-0.0126926321535073,0.000668925997243974));
#1459=CARTESIAN_POINT('',(0.0309833709080616,-0.0131706751474376,0.000335546191357539));
#1460=CARTESIAN_POINT('',(0.0311402203989651,-0.0136486876110446,-2.48637859534523E-18));
#1461=CARTESIAN_POINT('',(-8.15320033709099E-17,-8.67361737988404E-19,0.));
#1462=CARTESIAN_POINT('',(0.0306562327348014,0.0122145566644759,0.001));
#1463=CARTESIAN_POINT('',(0.0308221357661449,0.0126926321535073,0.000668925997243979));
#1464=CARTESIAN_POINT('',(0.0309833709080616,0.0131706751474375,0.000335546191357535));
#1465=CARTESIAN_POINT('',(0.0311402203989651,0.0136486876110445,-2.62756273872336E-19));
#1466=CARTESIAN_POINT('',(0.0200781163674007,0.00610727833223796,0.001));
#1467=CARTESIAN_POINT('',(0.,-0.0392652307082018,0.0058682862892518));
#1468=CARTESIAN_POINT('',(-0.0041638922350479,-0.0392652307082018,0.0058682862892518));
#1469=CARTESIAN_POINT('',(0.0041638922350479,-0.0392652307082018,0.0058682862892518));
#1470=CARTESIAN_POINT('',(-0.0041638922350479,-0.0392652307082018,0.0044341431446259));
#1471=CARTESIAN_POINT('',(0.0041638922350479,-0.0392652307082018,0.0044341431446259));
#1472=MECHANICAL_DESIGN_GEOMETRIC_PRESENTATION_REPRESENTATION('',(#863),
#1473);
#1473=(
GEOMETRIC_REPRESENTATION_CONTEXT(3)
GLOBAL_UNCERTAINTY_ASSIGNED_CONTEXT((#1474))
GLOBAL_UNIT_ASSIGNED_CONTEXT((#1477,#1476,#1475))
REPRESENTATION_CONTEXT('Part 1','TOP_LEVEL_ASSEMBLY_PART')
);
#1474=UNCERTAINTY_MEASURE_WITH_UNIT(LENGTH_MEASURE(2.E-5),#1477,
'DISTANCE_ACCURACY_VALUE','Maximum Tolerance applied to model');
#1475=(
NAMED_UNIT(*)
SI_UNIT($,.STERADIAN.)
SOLID_ANGLE_UNIT()
);
#1476=(
NAMED_UNIT(*)
PLANE_ANGLE_UNIT()
SI_UNIT($,.RADIAN.)
);
#1477=(
LENGTH_UNIT()
NAMED_UNIT(*)
SI_UNIT($,.METRE.)
);
#1478=PRODUCT_DEFINITION_SHAPE('','',#1479);
#1479=PRODUCT_DEFINITION('','',#1481,#1480);
#1480=PRODUCT_DEFINITION_CONTEXT('',#1487,'design');
#1481=PRODUCT_DEFINITION_FORMATION_WITH_SPECIFIED_SOURCE('','',#1483,
 .NOT_KNOWN.);
#1482=PRODUCT_RELATED_PRODUCT_CATEGORY('','',(#1483));
#1483=PRODUCT('Part 1','Part 1','Part 1',(#1485));
#1484=PRODUCT_CATEGORY('','');
#1485=PRODUCT_CONTEXT('',#1487,'mechanical');
#1486=APPLICATION_PROTOCOL_DEFINITION('international standard',
'ap242_managed_model_based_3d_engineering',2020,#1487);
#1487=APPLICATION_CONTEXT('managed model based 3d engineering');
ENDSEC;
END-ISO-10303-21;
